G04 #@! TF.GenerationSoftware,KiCad,Pcbnew,5.1.8*
G04 #@! TF.CreationDate,2020-12-11T01:20:56+09:00*
G04 #@! TF.ProjectId,hikari,68696b61-7269-42e6-9b69-6361645f7063,rev?*
G04 #@! TF.SameCoordinates,Original*
G04 #@! TF.FileFunction,Copper,L1,Top*
G04 #@! TF.FilePolarity,Positive*
%FSLAX46Y46*%
G04 Gerber Fmt 4.6, Leading zero omitted, Abs format (unit mm)*
G04 Created by KiCad (PCBNEW 5.1.8) date 2020-12-11 01:20:56*
%MOMM*%
%LPD*%
G01*
G04 APERTURE LIST*
G04 #@! TA.AperFunction,ComponentPad*
%ADD10C,1.524000*%
G04 #@! TD*
G04 #@! TA.AperFunction,ComponentPad*
%ADD11C,2.000000*%
G04 #@! TD*
G04 #@! TA.AperFunction,ViaPad*
%ADD12C,0.800000*%
G04 #@! TD*
G04 #@! TA.AperFunction,Conductor*
%ADD13C,0.250000*%
G04 #@! TD*
G04 #@! TA.AperFunction,Conductor*
%ADD14C,0.500000*%
G04 #@! TD*
G04 APERTURE END LIST*
D10*
X108108600Y-123478000D03*
X108108600Y-120938000D03*
X108108600Y-118398000D03*
X108108600Y-115858000D03*
X108108600Y-113318000D03*
X108108600Y-110778000D03*
X108108600Y-108238000D03*
X108108600Y-105698000D03*
X108108600Y-103158000D03*
X108108600Y-100618000D03*
X108108600Y-98078000D03*
X108108600Y-95538000D03*
X92888600Y-95538000D03*
X92888600Y-98078000D03*
X92888600Y-100618000D03*
X92888600Y-103158000D03*
X92888600Y-105698000D03*
X92888600Y-108238000D03*
X92888600Y-110778000D03*
X92888600Y-113318000D03*
X92888600Y-115858000D03*
X92888600Y-118398000D03*
X92888600Y-120938000D03*
X92888600Y-123478000D03*
D11*
X112250000Y-126500000D03*
X118750000Y-126500000D03*
X139250000Y-47500000D03*
X145750000Y-47500000D03*
D10*
X165111400Y-50522000D03*
X165111400Y-53062000D03*
X165111400Y-55602000D03*
X165111400Y-58142000D03*
X165111400Y-60682000D03*
X165111400Y-63222000D03*
X165111400Y-65762000D03*
X165111400Y-68302000D03*
X165111400Y-70842000D03*
X165111400Y-73382000D03*
X165111400Y-75922000D03*
X165111400Y-78462000D03*
X149891400Y-78462000D03*
X149891400Y-75922000D03*
X149891400Y-73382000D03*
X149891400Y-70842000D03*
X149891400Y-68302000D03*
X149891400Y-65762000D03*
X149891400Y-63222000D03*
X149891400Y-60682000D03*
X149891400Y-58142000D03*
X149891400Y-55602000D03*
X149891400Y-53062000D03*
X149891400Y-50522000D03*
D12*
X111250000Y-105500000D03*
X113000000Y-109500000D03*
X113500000Y-116250000D03*
X112500000Y-111500000D03*
X114500000Y-115350000D03*
X146750000Y-68500000D03*
X145000000Y-64500000D03*
X144500000Y-57750000D03*
X143500000Y-58650000D03*
X145500000Y-62500000D03*
D13*
X92888600Y-123478000D02*
X95000000Y-121366600D01*
X109850013Y-106899987D02*
X111250000Y-105500000D01*
X98850013Y-106899987D02*
X109850013Y-106899987D01*
X95000000Y-121366600D02*
X95000000Y-110750000D01*
X95000000Y-110750000D02*
X98850013Y-106899987D01*
D14*
X113500000Y-116250000D02*
X111649999Y-114399999D01*
X111649999Y-110850001D02*
X113000000Y-109500000D01*
X111649999Y-114399999D02*
X111649999Y-110850001D01*
D13*
X114500000Y-115350000D02*
X112500000Y-113350000D01*
X112500000Y-113350000D02*
X112500000Y-111500000D01*
X148149987Y-67100013D02*
X146750000Y-68500000D01*
X159149987Y-67100013D02*
X148149987Y-67100013D01*
X163000000Y-63250000D02*
X159149987Y-67100013D01*
X163000000Y-52633400D02*
X163000000Y-63250000D01*
X165111400Y-50522000D02*
X163000000Y-52633400D01*
D14*
X146350001Y-63149999D02*
X145000000Y-64500000D01*
X146350001Y-59600001D02*
X146350001Y-63149999D01*
X144500000Y-57750000D02*
X146350001Y-59600001D01*
D13*
X145500000Y-60650000D02*
X145500000Y-62500000D01*
X143500000Y-58650000D02*
X145500000Y-60650000D01*
M02*
