G04 #@! TF.GenerationSoftware,KiCad,Pcbnew,5.1.8*
G04 #@! TF.CreationDate,2020-12-11T01:20:56+09:00*
G04 #@! TF.ProjectId,hikari,68696b61-7269-42e6-9b69-6361645f7063,rev?*
G04 #@! TF.SameCoordinates,Original*
G04 #@! TF.FileFunction,Legend,Bot*
G04 #@! TF.FilePolarity,Positive*
%FSLAX46Y46*%
G04 Gerber Fmt 4.6, Leading zero omitted, Abs format (unit mm)*
G04 Created by KiCad (PCBNEW 5.1.8) date 2020-12-11 01:20:56*
%MOMM*%
%LPD*%
G01*
G04 APERTURE LIST*
%ADD10C,0.150000*%
%ADD11C,0.300000*%
%ADD12R,1.800000X0.820000*%
%ADD13R,1.600000X1.000000*%
%ADD14R,0.635000X1.143000*%
%ADD15C,1.524000*%
%ADD16C,2.000000*%
G04 APERTURE END LIST*
D10*
G36*
X114190000Y-117984000D02*
G01*
X115206000Y-116968000D01*
X114190000Y-116968000D01*
X114190000Y-117984000D01*
G37*
X114190000Y-117984000D02*
X115206000Y-116968000D01*
X114190000Y-116968000D01*
X114190000Y-117984000D01*
G36*
X124190000Y-111234000D02*
G01*
X125206000Y-110218000D01*
X124190000Y-110218000D01*
X124190000Y-111234000D01*
G37*
X124190000Y-111234000D02*
X125206000Y-110218000D01*
X124190000Y-110218000D01*
X124190000Y-111234000D01*
D11*
X134570000Y-104018750D02*
X134570000Y-102568750D01*
X134570000Y-102568750D02*
X136620000Y-102568750D01*
X136620000Y-102568750D02*
X136620000Y-104018750D01*
X136620000Y-104018750D02*
X134570000Y-104018750D01*
D10*
G36*
X124190000Y-117984000D02*
G01*
X125206000Y-116968000D01*
X124190000Y-116968000D01*
X124190000Y-117984000D01*
G37*
X124190000Y-117984000D02*
X125206000Y-116968000D01*
X124190000Y-116968000D01*
X124190000Y-117984000D01*
X110106620Y-123389000D02*
X112392620Y-123389000D01*
X112392620Y-123389000D02*
X112392620Y-121611000D01*
X112392620Y-121611000D02*
X110106620Y-121611000D01*
X110106620Y-121611000D02*
X110106620Y-123389000D01*
D11*
X144570000Y-95600000D02*
X144570000Y-94150000D01*
X144570000Y-94150000D02*
X146620000Y-94150000D01*
X146620000Y-94150000D02*
X146620000Y-95600000D01*
X146620000Y-95600000D02*
X144570000Y-95600000D01*
D10*
X110357380Y-103889000D02*
X112643380Y-103889000D01*
X112643380Y-103889000D02*
X112643380Y-102111000D01*
X112643380Y-102111000D02*
X110357380Y-102111000D01*
X110357380Y-102111000D02*
X110357380Y-103889000D01*
D11*
X116620000Y-95600000D02*
X114570000Y-95600000D01*
X116620000Y-94150000D02*
X116620000Y-95600000D01*
X114570000Y-94150000D02*
X116620000Y-94150000D01*
X114570000Y-95600000D02*
X114570000Y-94150000D01*
X124570000Y-95600000D02*
X124570000Y-94150000D01*
X124570000Y-94150000D02*
X126620000Y-94150000D01*
X126620000Y-94150000D02*
X126620000Y-95600000D01*
X126620000Y-95600000D02*
X124570000Y-95600000D01*
D10*
G36*
X154190000Y-111234000D02*
G01*
X155206000Y-110218000D01*
X154190000Y-110218000D01*
X154190000Y-111234000D01*
G37*
X154190000Y-111234000D02*
X155206000Y-110218000D01*
X154190000Y-110218000D01*
X154190000Y-111234000D01*
D11*
X136620000Y-95600000D02*
X134570000Y-95600000D01*
X136620000Y-94150000D02*
X136620000Y-95600000D01*
X134570000Y-94150000D02*
X136620000Y-94150000D01*
X134570000Y-95600000D02*
X134570000Y-94150000D01*
D10*
G36*
X114190000Y-111234000D02*
G01*
X115206000Y-110218000D01*
X114190000Y-110218000D01*
X114190000Y-111234000D01*
G37*
X114190000Y-111234000D02*
X115206000Y-110218000D01*
X114190000Y-110218000D01*
X114190000Y-111234000D01*
G36*
X144190000Y-117984000D02*
G01*
X145206000Y-116968000D01*
X144190000Y-116968000D01*
X144190000Y-117984000D01*
G37*
X144190000Y-117984000D02*
X145206000Y-116968000D01*
X144190000Y-116968000D01*
X144190000Y-117984000D01*
D11*
X156620000Y-95600000D02*
X154570000Y-95600000D01*
X156620000Y-94150000D02*
X156620000Y-95600000D01*
X154570000Y-94150000D02*
X156620000Y-94150000D01*
X154570000Y-95600000D02*
X154570000Y-94150000D01*
X154570000Y-104018750D02*
X154570000Y-102568750D01*
X154570000Y-102568750D02*
X156620000Y-102568750D01*
X156620000Y-102568750D02*
X156620000Y-104018750D01*
X156620000Y-104018750D02*
X154570000Y-104018750D01*
D10*
G36*
X134190000Y-111234000D02*
G01*
X135206000Y-110218000D01*
X134190000Y-110218000D01*
X134190000Y-111234000D01*
G37*
X134190000Y-111234000D02*
X135206000Y-110218000D01*
X134190000Y-110218000D01*
X134190000Y-111234000D01*
D11*
X114570000Y-104018750D02*
X114570000Y-102568750D01*
X114570000Y-102568750D02*
X116620000Y-102568750D01*
X116620000Y-102568750D02*
X116620000Y-104018750D01*
X116620000Y-104018750D02*
X114570000Y-104018750D01*
X126620000Y-104018750D02*
X124570000Y-104018750D01*
X126620000Y-102568750D02*
X126620000Y-104018750D01*
X124570000Y-102568750D02*
X126620000Y-102568750D01*
X124570000Y-104018750D02*
X124570000Y-102568750D01*
D10*
G36*
X154190000Y-117984000D02*
G01*
X155206000Y-116968000D01*
X154190000Y-116968000D01*
X154190000Y-117984000D01*
G37*
X154190000Y-117984000D02*
X155206000Y-116968000D01*
X154190000Y-116968000D01*
X154190000Y-117984000D01*
G36*
X134190000Y-117984000D02*
G01*
X135206000Y-116968000D01*
X134190000Y-116968000D01*
X134190000Y-117984000D01*
G37*
X134190000Y-117984000D02*
X135206000Y-116968000D01*
X134190000Y-116968000D01*
X134190000Y-117984000D01*
D11*
X146620000Y-104018750D02*
X144570000Y-104018750D01*
X146620000Y-102568750D02*
X146620000Y-104018750D01*
X144570000Y-102568750D02*
X146620000Y-102568750D01*
X144570000Y-104018750D02*
X144570000Y-102568750D01*
D10*
G36*
X144190000Y-111234000D02*
G01*
X145206000Y-110218000D01*
X144190000Y-110218000D01*
X144190000Y-111234000D01*
G37*
X144190000Y-111234000D02*
X145206000Y-110218000D01*
X144190000Y-110218000D01*
X144190000Y-111234000D01*
X147893380Y-50611000D02*
X145607380Y-50611000D01*
X145607380Y-50611000D02*
X145607380Y-52389000D01*
X145607380Y-52389000D02*
X147893380Y-52389000D01*
X147893380Y-52389000D02*
X147893380Y-50611000D01*
G36*
X143810000Y-56016000D02*
G01*
X142794000Y-57032000D01*
X143810000Y-57032000D01*
X143810000Y-56016000D01*
G37*
X143810000Y-56016000D02*
X142794000Y-57032000D01*
X143810000Y-57032000D01*
X143810000Y-56016000D01*
G36*
X133810000Y-56016000D02*
G01*
X132794000Y-57032000D01*
X133810000Y-57032000D01*
X133810000Y-56016000D01*
G37*
X133810000Y-56016000D02*
X132794000Y-57032000D01*
X133810000Y-57032000D01*
X133810000Y-56016000D01*
G36*
X123810000Y-56016000D02*
G01*
X122794000Y-57032000D01*
X123810000Y-57032000D01*
X123810000Y-56016000D01*
G37*
X123810000Y-56016000D02*
X122794000Y-57032000D01*
X123810000Y-57032000D01*
X123810000Y-56016000D01*
G36*
X113810000Y-56016000D02*
G01*
X112794000Y-57032000D01*
X113810000Y-57032000D01*
X113810000Y-56016000D01*
G37*
X113810000Y-56016000D02*
X112794000Y-57032000D01*
X113810000Y-57032000D01*
X113810000Y-56016000D01*
G36*
X103810000Y-56016000D02*
G01*
X102794000Y-57032000D01*
X103810000Y-57032000D01*
X103810000Y-56016000D01*
G37*
X103810000Y-56016000D02*
X102794000Y-57032000D01*
X103810000Y-57032000D01*
X103810000Y-56016000D01*
G36*
X143810000Y-62766000D02*
G01*
X142794000Y-63782000D01*
X143810000Y-63782000D01*
X143810000Y-62766000D01*
G37*
X143810000Y-62766000D02*
X142794000Y-63782000D01*
X143810000Y-63782000D01*
X143810000Y-62766000D01*
G36*
X133810000Y-62766000D02*
G01*
X132794000Y-63782000D01*
X133810000Y-63782000D01*
X133810000Y-62766000D01*
G37*
X133810000Y-62766000D02*
X132794000Y-63782000D01*
X133810000Y-63782000D01*
X133810000Y-62766000D01*
G36*
X123810000Y-62766000D02*
G01*
X122794000Y-63782000D01*
X123810000Y-63782000D01*
X123810000Y-62766000D01*
G37*
X123810000Y-62766000D02*
X122794000Y-63782000D01*
X123810000Y-63782000D01*
X123810000Y-62766000D01*
G36*
X113810000Y-62766000D02*
G01*
X112794000Y-63782000D01*
X113810000Y-63782000D01*
X113810000Y-62766000D01*
G37*
X113810000Y-62766000D02*
X112794000Y-63782000D01*
X113810000Y-63782000D01*
X113810000Y-62766000D01*
G36*
X103810000Y-62766000D02*
G01*
X102794000Y-63782000D01*
X103810000Y-63782000D01*
X103810000Y-62766000D01*
G37*
X103810000Y-62766000D02*
X102794000Y-63782000D01*
X103810000Y-63782000D01*
X103810000Y-62766000D01*
D11*
X143430000Y-69981250D02*
X143430000Y-71431250D01*
X143430000Y-71431250D02*
X141380000Y-71431250D01*
X141380000Y-71431250D02*
X141380000Y-69981250D01*
X141380000Y-69981250D02*
X143430000Y-69981250D01*
X131380000Y-69981250D02*
X133430000Y-69981250D01*
X131380000Y-71431250D02*
X131380000Y-69981250D01*
X133430000Y-71431250D02*
X131380000Y-71431250D01*
X133430000Y-69981250D02*
X133430000Y-71431250D01*
X123430000Y-69981250D02*
X123430000Y-71431250D01*
X123430000Y-71431250D02*
X121380000Y-71431250D01*
X121380000Y-71431250D02*
X121380000Y-69981250D01*
X121380000Y-69981250D02*
X123430000Y-69981250D01*
X111380000Y-69981250D02*
X113430000Y-69981250D01*
X111380000Y-71431250D02*
X111380000Y-69981250D01*
X113430000Y-71431250D02*
X111380000Y-71431250D01*
X113430000Y-69981250D02*
X113430000Y-71431250D01*
X103430000Y-69981250D02*
X103430000Y-71431250D01*
X103430000Y-71431250D02*
X101380000Y-71431250D01*
X101380000Y-71431250D02*
X101380000Y-69981250D01*
X101380000Y-69981250D02*
X103430000Y-69981250D01*
X141380000Y-78400000D02*
X143430000Y-78400000D01*
X141380000Y-79850000D02*
X141380000Y-78400000D01*
X143430000Y-79850000D02*
X141380000Y-79850000D01*
X143430000Y-78400000D02*
X143430000Y-79850000D01*
X133430000Y-78400000D02*
X133430000Y-79850000D01*
X133430000Y-79850000D02*
X131380000Y-79850000D01*
X131380000Y-79850000D02*
X131380000Y-78400000D01*
X131380000Y-78400000D02*
X133430000Y-78400000D01*
X121380000Y-78400000D02*
X123430000Y-78400000D01*
X121380000Y-79850000D02*
X121380000Y-78400000D01*
X123430000Y-79850000D02*
X121380000Y-79850000D01*
X123430000Y-78400000D02*
X123430000Y-79850000D01*
X113430000Y-78400000D02*
X113430000Y-79850000D01*
X113430000Y-79850000D02*
X111380000Y-79850000D01*
X111380000Y-79850000D02*
X111380000Y-78400000D01*
X111380000Y-78400000D02*
X113430000Y-78400000D01*
X101380000Y-78400000D02*
X103430000Y-78400000D01*
X101380000Y-79850000D02*
X101380000Y-78400000D01*
X103430000Y-79850000D02*
X101380000Y-79850000D01*
X103430000Y-78400000D02*
X103430000Y-79850000D01*
D10*
X147642620Y-70111000D02*
X145356620Y-70111000D01*
X145356620Y-70111000D02*
X145356620Y-71889000D01*
X145356620Y-71889000D02*
X147642620Y-71889000D01*
X147642620Y-71889000D02*
X147642620Y-70111000D01*
X118166666Y-116652380D02*
X118642857Y-116652380D01*
X118642857Y-115652380D01*
X117309523Y-116652380D02*
X117880952Y-116652380D01*
X117595238Y-116652380D02*
X117595238Y-115652380D01*
X117690476Y-115795238D01*
X117785714Y-115890476D01*
X117880952Y-115938095D01*
X128166666Y-109902380D02*
X128642857Y-109902380D01*
X128642857Y-108902380D01*
X127928571Y-108902380D02*
X127261904Y-108902380D01*
X127690476Y-109902380D01*
X137357142Y-105871130D02*
X136880952Y-105871130D01*
X136880952Y-104871130D01*
X138214285Y-105871130D02*
X137642857Y-105871130D01*
X137928571Y-105871130D02*
X137928571Y-104871130D01*
X137833333Y-105013988D01*
X137738095Y-105109226D01*
X137642857Y-105156845D01*
X138547619Y-104871130D02*
X139166666Y-104871130D01*
X138833333Y-105252083D01*
X138976190Y-105252083D01*
X139071428Y-105299702D01*
X139119047Y-105347321D01*
X139166666Y-105442559D01*
X139166666Y-105680654D01*
X139119047Y-105775892D01*
X139071428Y-105823511D01*
X138976190Y-105871130D01*
X138690476Y-105871130D01*
X138595238Y-105823511D01*
X138547619Y-105775892D01*
X128166666Y-116652380D02*
X128642857Y-116652380D01*
X128642857Y-115652380D01*
X127880952Y-115747619D02*
X127833333Y-115700000D01*
X127738095Y-115652380D01*
X127500000Y-115652380D01*
X127404761Y-115700000D01*
X127357142Y-115747619D01*
X127309523Y-115842857D01*
X127309523Y-115938095D01*
X127357142Y-116080952D01*
X127928571Y-116652380D01*
X127309523Y-116652380D01*
X111270173Y-124054895D02*
X111270173Y-124635466D01*
X111308878Y-124751580D01*
X111386287Y-124828990D01*
X111502401Y-124867695D01*
X111579811Y-124867695D01*
X110457373Y-124867695D02*
X110921830Y-124867695D01*
X110689601Y-124867695D02*
X110689601Y-124054895D01*
X110767011Y-124171009D01*
X110844420Y-124248419D01*
X110921830Y-124287123D01*
X147357142Y-97452380D02*
X146880952Y-97452380D01*
X146880952Y-96452380D01*
X148214285Y-97452380D02*
X147642857Y-97452380D01*
X147928571Y-97452380D02*
X147928571Y-96452380D01*
X147833333Y-96595238D01*
X147738095Y-96690476D01*
X147642857Y-96738095D01*
X148690476Y-97452380D02*
X148880952Y-97452380D01*
X148976190Y-97404761D01*
X149023809Y-97357142D01*
X149119047Y-97214285D01*
X149166666Y-97023809D01*
X149166666Y-96642857D01*
X149119047Y-96547619D01*
X149071428Y-96500000D01*
X148976190Y-96452380D01*
X148785714Y-96452380D01*
X148690476Y-96500000D01*
X148642857Y-96547619D01*
X148595238Y-96642857D01*
X148595238Y-96880952D01*
X148642857Y-96976190D01*
X148690476Y-97023809D01*
X148785714Y-97071428D01*
X148976190Y-97071428D01*
X149071428Y-97023809D01*
X149119047Y-96976190D01*
X149166666Y-96880952D01*
X111770933Y-104554895D02*
X111770933Y-105135466D01*
X111809638Y-105251580D01*
X111887047Y-105328990D01*
X112003161Y-105367695D01*
X112080571Y-105367695D01*
X111422590Y-104632304D02*
X111383885Y-104593600D01*
X111306476Y-104554895D01*
X111112952Y-104554895D01*
X111035542Y-104593600D01*
X110996838Y-104632304D01*
X110958133Y-104709714D01*
X110958133Y-104787123D01*
X110996838Y-104903238D01*
X111461295Y-105367695D01*
X110958133Y-105367695D01*
X117357142Y-97452380D02*
X116880952Y-97452380D01*
X116880952Y-96452380D01*
X118214285Y-97452380D02*
X117642857Y-97452380D01*
X117928571Y-97452380D02*
X117928571Y-96452380D01*
X117833333Y-96595238D01*
X117738095Y-96690476D01*
X117642857Y-96738095D01*
X119071428Y-96452380D02*
X118880952Y-96452380D01*
X118785714Y-96500000D01*
X118738095Y-96547619D01*
X118642857Y-96690476D01*
X118595238Y-96880952D01*
X118595238Y-97261904D01*
X118642857Y-97357142D01*
X118690476Y-97404761D01*
X118785714Y-97452380D01*
X118976190Y-97452380D01*
X119071428Y-97404761D01*
X119119047Y-97357142D01*
X119166666Y-97261904D01*
X119166666Y-97023809D01*
X119119047Y-96928571D01*
X119071428Y-96880952D01*
X118976190Y-96833333D01*
X118785714Y-96833333D01*
X118690476Y-96880952D01*
X118642857Y-96928571D01*
X118595238Y-97023809D01*
X127357142Y-97452380D02*
X126880952Y-97452380D01*
X126880952Y-96452380D01*
X128214285Y-97452380D02*
X127642857Y-97452380D01*
X127928571Y-97452380D02*
X127928571Y-96452380D01*
X127833333Y-96595238D01*
X127738095Y-96690476D01*
X127642857Y-96738095D01*
X128547619Y-96452380D02*
X129214285Y-96452380D01*
X128785714Y-97452380D01*
X158642857Y-109902380D02*
X159119047Y-109902380D01*
X159119047Y-108902380D01*
X157785714Y-109902380D02*
X158357142Y-109902380D01*
X158071428Y-109902380D02*
X158071428Y-108902380D01*
X158166666Y-109045238D01*
X158261904Y-109140476D01*
X158357142Y-109188095D01*
X157166666Y-108902380D02*
X157071428Y-108902380D01*
X156976190Y-108950000D01*
X156928571Y-108997619D01*
X156880952Y-109092857D01*
X156833333Y-109283333D01*
X156833333Y-109521428D01*
X156880952Y-109711904D01*
X156928571Y-109807142D01*
X156976190Y-109854761D01*
X157071428Y-109902380D01*
X157166666Y-109902380D01*
X157261904Y-109854761D01*
X157309523Y-109807142D01*
X157357142Y-109711904D01*
X157404761Y-109521428D01*
X157404761Y-109283333D01*
X157357142Y-109092857D01*
X157309523Y-108997619D01*
X157261904Y-108950000D01*
X157166666Y-108902380D01*
X137357142Y-97452380D02*
X136880952Y-97452380D01*
X136880952Y-96452380D01*
X138214285Y-97452380D02*
X137642857Y-97452380D01*
X137928571Y-97452380D02*
X137928571Y-96452380D01*
X137833333Y-96595238D01*
X137738095Y-96690476D01*
X137642857Y-96738095D01*
X138785714Y-96880952D02*
X138690476Y-96833333D01*
X138642857Y-96785714D01*
X138595238Y-96690476D01*
X138595238Y-96642857D01*
X138642857Y-96547619D01*
X138690476Y-96500000D01*
X138785714Y-96452380D01*
X138976190Y-96452380D01*
X139071428Y-96500000D01*
X139119047Y-96547619D01*
X139166666Y-96642857D01*
X139166666Y-96690476D01*
X139119047Y-96785714D01*
X139071428Y-96833333D01*
X138976190Y-96880952D01*
X138785714Y-96880952D01*
X138690476Y-96928571D01*
X138642857Y-96976190D01*
X138595238Y-97071428D01*
X138595238Y-97261904D01*
X138642857Y-97357142D01*
X138690476Y-97404761D01*
X138785714Y-97452380D01*
X138976190Y-97452380D01*
X139071428Y-97404761D01*
X139119047Y-97357142D01*
X139166666Y-97261904D01*
X139166666Y-97071428D01*
X139119047Y-96976190D01*
X139071428Y-96928571D01*
X138976190Y-96880952D01*
X118166666Y-109902380D02*
X118642857Y-109902380D01*
X118642857Y-108902380D01*
X117404761Y-108902380D02*
X117595238Y-108902380D01*
X117690476Y-108950000D01*
X117738095Y-108997619D01*
X117833333Y-109140476D01*
X117880952Y-109330952D01*
X117880952Y-109711904D01*
X117833333Y-109807142D01*
X117785714Y-109854761D01*
X117690476Y-109902380D01*
X117500000Y-109902380D01*
X117404761Y-109854761D01*
X117357142Y-109807142D01*
X117309523Y-109711904D01*
X117309523Y-109473809D01*
X117357142Y-109378571D01*
X117404761Y-109330952D01*
X117500000Y-109283333D01*
X117690476Y-109283333D01*
X117785714Y-109330952D01*
X117833333Y-109378571D01*
X117880952Y-109473809D01*
X148166666Y-116652380D02*
X148642857Y-116652380D01*
X148642857Y-115652380D01*
X147404761Y-115985714D02*
X147404761Y-116652380D01*
X147642857Y-115604761D02*
X147880952Y-116319047D01*
X147261904Y-116319047D01*
X157357142Y-97452380D02*
X156880952Y-97452380D01*
X156880952Y-96452380D01*
X157642857Y-96547619D02*
X157690476Y-96500000D01*
X157785714Y-96452380D01*
X158023809Y-96452380D01*
X158119047Y-96500000D01*
X158166666Y-96547619D01*
X158214285Y-96642857D01*
X158214285Y-96738095D01*
X158166666Y-96880952D01*
X157595238Y-97452380D01*
X158214285Y-97452380D01*
X158833333Y-96452380D02*
X158928571Y-96452380D01*
X159023809Y-96500000D01*
X159071428Y-96547619D01*
X159119047Y-96642857D01*
X159166666Y-96833333D01*
X159166666Y-97071428D01*
X159119047Y-97261904D01*
X159071428Y-97357142D01*
X159023809Y-97404761D01*
X158928571Y-97452380D01*
X158833333Y-97452380D01*
X158738095Y-97404761D01*
X158690476Y-97357142D01*
X158642857Y-97261904D01*
X158595238Y-97071428D01*
X158595238Y-96833333D01*
X158642857Y-96642857D01*
X158690476Y-96547619D01*
X158738095Y-96500000D01*
X158833333Y-96452380D01*
X157357142Y-105871130D02*
X156880952Y-105871130D01*
X156880952Y-104871130D01*
X158214285Y-105871130D02*
X157642857Y-105871130D01*
X157928571Y-105871130D02*
X157928571Y-104871130D01*
X157833333Y-105013988D01*
X157738095Y-105109226D01*
X157642857Y-105156845D01*
X159119047Y-104871130D02*
X158642857Y-104871130D01*
X158595238Y-105347321D01*
X158642857Y-105299702D01*
X158738095Y-105252083D01*
X158976190Y-105252083D01*
X159071428Y-105299702D01*
X159119047Y-105347321D01*
X159166666Y-105442559D01*
X159166666Y-105680654D01*
X159119047Y-105775892D01*
X159071428Y-105823511D01*
X158976190Y-105871130D01*
X158738095Y-105871130D01*
X158642857Y-105823511D01*
X158595238Y-105775892D01*
X138166666Y-109902380D02*
X138642857Y-109902380D01*
X138642857Y-108902380D01*
X137690476Y-109330952D02*
X137785714Y-109283333D01*
X137833333Y-109235714D01*
X137880952Y-109140476D01*
X137880952Y-109092857D01*
X137833333Y-108997619D01*
X137785714Y-108950000D01*
X137690476Y-108902380D01*
X137500000Y-108902380D01*
X137404761Y-108950000D01*
X137357142Y-108997619D01*
X137309523Y-109092857D01*
X137309523Y-109140476D01*
X137357142Y-109235714D01*
X137404761Y-109283333D01*
X137500000Y-109330952D01*
X137690476Y-109330952D01*
X137785714Y-109378571D01*
X137833333Y-109426190D01*
X137880952Y-109521428D01*
X137880952Y-109711904D01*
X137833333Y-109807142D01*
X137785714Y-109854761D01*
X137690476Y-109902380D01*
X137500000Y-109902380D01*
X137404761Y-109854761D01*
X137357142Y-109807142D01*
X137309523Y-109711904D01*
X137309523Y-109521428D01*
X137357142Y-109426190D01*
X137404761Y-109378571D01*
X137500000Y-109330952D01*
X117357142Y-105871130D02*
X116880952Y-105871130D01*
X116880952Y-104871130D01*
X118214285Y-105871130D02*
X117642857Y-105871130D01*
X117928571Y-105871130D02*
X117928571Y-104871130D01*
X117833333Y-105013988D01*
X117738095Y-105109226D01*
X117642857Y-105156845D01*
X119166666Y-105871130D02*
X118595238Y-105871130D01*
X118880952Y-105871130D02*
X118880952Y-104871130D01*
X118785714Y-105013988D01*
X118690476Y-105109226D01*
X118595238Y-105156845D01*
X127357142Y-105871130D02*
X126880952Y-105871130D01*
X126880952Y-104871130D01*
X128214285Y-105871130D02*
X127642857Y-105871130D01*
X127928571Y-105871130D02*
X127928571Y-104871130D01*
X127833333Y-105013988D01*
X127738095Y-105109226D01*
X127642857Y-105156845D01*
X128595238Y-104966369D02*
X128642857Y-104918750D01*
X128738095Y-104871130D01*
X128976190Y-104871130D01*
X129071428Y-104918750D01*
X129119047Y-104966369D01*
X129166666Y-105061607D01*
X129166666Y-105156845D01*
X129119047Y-105299702D01*
X128547619Y-105871130D01*
X129166666Y-105871130D01*
X158166666Y-116652380D02*
X158642857Y-116652380D01*
X158642857Y-115652380D01*
X157357142Y-115652380D02*
X157833333Y-115652380D01*
X157880952Y-116128571D01*
X157833333Y-116080952D01*
X157738095Y-116033333D01*
X157500000Y-116033333D01*
X157404761Y-116080952D01*
X157357142Y-116128571D01*
X157309523Y-116223809D01*
X157309523Y-116461904D01*
X157357142Y-116557142D01*
X157404761Y-116604761D01*
X157500000Y-116652380D01*
X157738095Y-116652380D01*
X157833333Y-116604761D01*
X157880952Y-116557142D01*
X138166666Y-116652380D02*
X138642857Y-116652380D01*
X138642857Y-115652380D01*
X137928571Y-115652380D02*
X137309523Y-115652380D01*
X137642857Y-116033333D01*
X137500000Y-116033333D01*
X137404761Y-116080952D01*
X137357142Y-116128571D01*
X137309523Y-116223809D01*
X137309523Y-116461904D01*
X137357142Y-116557142D01*
X137404761Y-116604761D01*
X137500000Y-116652380D01*
X137785714Y-116652380D01*
X137880952Y-116604761D01*
X137928571Y-116557142D01*
X147357142Y-105871130D02*
X146880952Y-105871130D01*
X146880952Y-104871130D01*
X148214285Y-105871130D02*
X147642857Y-105871130D01*
X147928571Y-105871130D02*
X147928571Y-104871130D01*
X147833333Y-105013988D01*
X147738095Y-105109226D01*
X147642857Y-105156845D01*
X149071428Y-105204464D02*
X149071428Y-105871130D01*
X148833333Y-104823511D02*
X148595238Y-105537797D01*
X149214285Y-105537797D01*
X148166666Y-109902380D02*
X148642857Y-109902380D01*
X148642857Y-108902380D01*
X147785714Y-109902380D02*
X147595238Y-109902380D01*
X147500000Y-109854761D01*
X147452380Y-109807142D01*
X147357142Y-109664285D01*
X147309523Y-109473809D01*
X147309523Y-109092857D01*
X147357142Y-108997619D01*
X147404761Y-108950000D01*
X147500000Y-108902380D01*
X147690476Y-108902380D01*
X147785714Y-108950000D01*
X147833333Y-108997619D01*
X147880952Y-109092857D01*
X147880952Y-109330952D01*
X147833333Y-109426190D01*
X147785714Y-109473809D01*
X147690476Y-109521428D01*
X147500000Y-109521428D01*
X147404761Y-109473809D01*
X147357142Y-109426190D01*
X147309523Y-109330952D01*
X147271693Y-49054895D02*
X147271693Y-49635466D01*
X147310398Y-49751580D01*
X147387807Y-49828990D01*
X147503921Y-49867695D01*
X147581331Y-49867695D01*
X146458893Y-49867695D02*
X146923350Y-49867695D01*
X146691121Y-49867695D02*
X146691121Y-49054895D01*
X146768531Y-49171009D01*
X146845940Y-49248419D01*
X146923350Y-49287123D01*
X140166666Y-58252380D02*
X140642857Y-58252380D01*
X140642857Y-57252380D01*
X139309523Y-58252380D02*
X139880952Y-58252380D01*
X139595238Y-58252380D02*
X139595238Y-57252380D01*
X139690476Y-57395238D01*
X139785714Y-57490476D01*
X139880952Y-57538095D01*
X130166666Y-58252380D02*
X130642857Y-58252380D01*
X130642857Y-57252380D01*
X129880952Y-57347619D02*
X129833333Y-57300000D01*
X129738095Y-57252380D01*
X129500000Y-57252380D01*
X129404761Y-57300000D01*
X129357142Y-57347619D01*
X129309523Y-57442857D01*
X129309523Y-57538095D01*
X129357142Y-57680952D01*
X129928571Y-58252380D01*
X129309523Y-58252380D01*
X120166666Y-58252380D02*
X120642857Y-58252380D01*
X120642857Y-57252380D01*
X119928571Y-57252380D02*
X119309523Y-57252380D01*
X119642857Y-57633333D01*
X119500000Y-57633333D01*
X119404761Y-57680952D01*
X119357142Y-57728571D01*
X119309523Y-57823809D01*
X119309523Y-58061904D01*
X119357142Y-58157142D01*
X119404761Y-58204761D01*
X119500000Y-58252380D01*
X119785714Y-58252380D01*
X119880952Y-58204761D01*
X119928571Y-58157142D01*
X110166666Y-58252380D02*
X110642857Y-58252380D01*
X110642857Y-57252380D01*
X109404761Y-57585714D02*
X109404761Y-58252380D01*
X109642857Y-57204761D02*
X109880952Y-57919047D01*
X109261904Y-57919047D01*
X100166666Y-58252380D02*
X100642857Y-58252380D01*
X100642857Y-57252380D01*
X99357142Y-57252380D02*
X99833333Y-57252380D01*
X99880952Y-57728571D01*
X99833333Y-57680952D01*
X99738095Y-57633333D01*
X99500000Y-57633333D01*
X99404761Y-57680952D01*
X99357142Y-57728571D01*
X99309523Y-57823809D01*
X99309523Y-58061904D01*
X99357142Y-58157142D01*
X99404761Y-58204761D01*
X99500000Y-58252380D01*
X99738095Y-58252380D01*
X99833333Y-58204761D01*
X99880952Y-58157142D01*
X140166666Y-65002380D02*
X140642857Y-65002380D01*
X140642857Y-64002380D01*
X139404761Y-64002380D02*
X139595238Y-64002380D01*
X139690476Y-64050000D01*
X139738095Y-64097619D01*
X139833333Y-64240476D01*
X139880952Y-64430952D01*
X139880952Y-64811904D01*
X139833333Y-64907142D01*
X139785714Y-64954761D01*
X139690476Y-65002380D01*
X139500000Y-65002380D01*
X139404761Y-64954761D01*
X139357142Y-64907142D01*
X139309523Y-64811904D01*
X139309523Y-64573809D01*
X139357142Y-64478571D01*
X139404761Y-64430952D01*
X139500000Y-64383333D01*
X139690476Y-64383333D01*
X139785714Y-64430952D01*
X139833333Y-64478571D01*
X139880952Y-64573809D01*
X130166666Y-65002380D02*
X130642857Y-65002380D01*
X130642857Y-64002380D01*
X129928571Y-64002380D02*
X129261904Y-64002380D01*
X129690476Y-65002380D01*
X120166666Y-65002380D02*
X120642857Y-65002380D01*
X120642857Y-64002380D01*
X119690476Y-64430952D02*
X119785714Y-64383333D01*
X119833333Y-64335714D01*
X119880952Y-64240476D01*
X119880952Y-64192857D01*
X119833333Y-64097619D01*
X119785714Y-64050000D01*
X119690476Y-64002380D01*
X119500000Y-64002380D01*
X119404761Y-64050000D01*
X119357142Y-64097619D01*
X119309523Y-64192857D01*
X119309523Y-64240476D01*
X119357142Y-64335714D01*
X119404761Y-64383333D01*
X119500000Y-64430952D01*
X119690476Y-64430952D01*
X119785714Y-64478571D01*
X119833333Y-64526190D01*
X119880952Y-64621428D01*
X119880952Y-64811904D01*
X119833333Y-64907142D01*
X119785714Y-64954761D01*
X119690476Y-65002380D01*
X119500000Y-65002380D01*
X119404761Y-64954761D01*
X119357142Y-64907142D01*
X119309523Y-64811904D01*
X119309523Y-64621428D01*
X119357142Y-64526190D01*
X119404761Y-64478571D01*
X119500000Y-64430952D01*
X110166666Y-65002380D02*
X110642857Y-65002380D01*
X110642857Y-64002380D01*
X109785714Y-65002380D02*
X109595238Y-65002380D01*
X109500000Y-64954761D01*
X109452380Y-64907142D01*
X109357142Y-64764285D01*
X109309523Y-64573809D01*
X109309523Y-64192857D01*
X109357142Y-64097619D01*
X109404761Y-64050000D01*
X109500000Y-64002380D01*
X109690476Y-64002380D01*
X109785714Y-64050000D01*
X109833333Y-64097619D01*
X109880952Y-64192857D01*
X109880952Y-64430952D01*
X109833333Y-64526190D01*
X109785714Y-64573809D01*
X109690476Y-64621428D01*
X109500000Y-64621428D01*
X109404761Y-64573809D01*
X109357142Y-64526190D01*
X109309523Y-64430952D01*
X100642857Y-65002380D02*
X101119047Y-65002380D01*
X101119047Y-64002380D01*
X99785714Y-65002380D02*
X100357142Y-65002380D01*
X100071428Y-65002380D02*
X100071428Y-64002380D01*
X100166666Y-64145238D01*
X100261904Y-64240476D01*
X100357142Y-64288095D01*
X99166666Y-64002380D02*
X99071428Y-64002380D01*
X98976190Y-64050000D01*
X98928571Y-64097619D01*
X98880952Y-64192857D01*
X98833333Y-64383333D01*
X98833333Y-64621428D01*
X98880952Y-64811904D01*
X98928571Y-64907142D01*
X98976190Y-64954761D01*
X99071428Y-65002380D01*
X99166666Y-65002380D01*
X99261904Y-64954761D01*
X99309523Y-64907142D01*
X99357142Y-64811904D01*
X99404761Y-64621428D01*
X99404761Y-64383333D01*
X99357142Y-64192857D01*
X99309523Y-64097619D01*
X99261904Y-64050000D01*
X99166666Y-64002380D01*
X139357142Y-69033630D02*
X138880952Y-69033630D01*
X138880952Y-68033630D01*
X140214285Y-69033630D02*
X139642857Y-69033630D01*
X139928571Y-69033630D02*
X139928571Y-68033630D01*
X139833333Y-68176488D01*
X139738095Y-68271726D01*
X139642857Y-68319345D01*
X141166666Y-69033630D02*
X140595238Y-69033630D01*
X140880952Y-69033630D02*
X140880952Y-68033630D01*
X140785714Y-68176488D01*
X140690476Y-68271726D01*
X140595238Y-68319345D01*
X129357142Y-69033630D02*
X128880952Y-69033630D01*
X128880952Y-68033630D01*
X130214285Y-69033630D02*
X129642857Y-69033630D01*
X129928571Y-69033630D02*
X129928571Y-68033630D01*
X129833333Y-68176488D01*
X129738095Y-68271726D01*
X129642857Y-68319345D01*
X130595238Y-68128869D02*
X130642857Y-68081250D01*
X130738095Y-68033630D01*
X130976190Y-68033630D01*
X131071428Y-68081250D01*
X131119047Y-68128869D01*
X131166666Y-68224107D01*
X131166666Y-68319345D01*
X131119047Y-68462202D01*
X130547619Y-69033630D01*
X131166666Y-69033630D01*
X119357142Y-69033630D02*
X118880952Y-69033630D01*
X118880952Y-68033630D01*
X120214285Y-69033630D02*
X119642857Y-69033630D01*
X119928571Y-69033630D02*
X119928571Y-68033630D01*
X119833333Y-68176488D01*
X119738095Y-68271726D01*
X119642857Y-68319345D01*
X120547619Y-68033630D02*
X121166666Y-68033630D01*
X120833333Y-68414583D01*
X120976190Y-68414583D01*
X121071428Y-68462202D01*
X121119047Y-68509821D01*
X121166666Y-68605059D01*
X121166666Y-68843154D01*
X121119047Y-68938392D01*
X121071428Y-68986011D01*
X120976190Y-69033630D01*
X120690476Y-69033630D01*
X120595238Y-68986011D01*
X120547619Y-68938392D01*
X109357142Y-69033630D02*
X108880952Y-69033630D01*
X108880952Y-68033630D01*
X110214285Y-69033630D02*
X109642857Y-69033630D01*
X109928571Y-69033630D02*
X109928571Y-68033630D01*
X109833333Y-68176488D01*
X109738095Y-68271726D01*
X109642857Y-68319345D01*
X111071428Y-68366964D02*
X111071428Y-69033630D01*
X110833333Y-67986011D02*
X110595238Y-68700297D01*
X111214285Y-68700297D01*
X99357142Y-69033630D02*
X98880952Y-69033630D01*
X98880952Y-68033630D01*
X100214285Y-69033630D02*
X99642857Y-69033630D01*
X99928571Y-69033630D02*
X99928571Y-68033630D01*
X99833333Y-68176488D01*
X99738095Y-68271726D01*
X99642857Y-68319345D01*
X101119047Y-68033630D02*
X100642857Y-68033630D01*
X100595238Y-68509821D01*
X100642857Y-68462202D01*
X100738095Y-68414583D01*
X100976190Y-68414583D01*
X101071428Y-68462202D01*
X101119047Y-68509821D01*
X101166666Y-68605059D01*
X101166666Y-68843154D01*
X101119047Y-68938392D01*
X101071428Y-68986011D01*
X100976190Y-69033630D01*
X100738095Y-69033630D01*
X100642857Y-68986011D01*
X100595238Y-68938392D01*
X139357142Y-77452380D02*
X138880952Y-77452380D01*
X138880952Y-76452380D01*
X140214285Y-77452380D02*
X139642857Y-77452380D01*
X139928571Y-77452380D02*
X139928571Y-76452380D01*
X139833333Y-76595238D01*
X139738095Y-76690476D01*
X139642857Y-76738095D01*
X141071428Y-76452380D02*
X140880952Y-76452380D01*
X140785714Y-76500000D01*
X140738095Y-76547619D01*
X140642857Y-76690476D01*
X140595238Y-76880952D01*
X140595238Y-77261904D01*
X140642857Y-77357142D01*
X140690476Y-77404761D01*
X140785714Y-77452380D01*
X140976190Y-77452380D01*
X141071428Y-77404761D01*
X141119047Y-77357142D01*
X141166666Y-77261904D01*
X141166666Y-77023809D01*
X141119047Y-76928571D01*
X141071428Y-76880952D01*
X140976190Y-76833333D01*
X140785714Y-76833333D01*
X140690476Y-76880952D01*
X140642857Y-76928571D01*
X140595238Y-77023809D01*
X129357142Y-77452380D02*
X128880952Y-77452380D01*
X128880952Y-76452380D01*
X130214285Y-77452380D02*
X129642857Y-77452380D01*
X129928571Y-77452380D02*
X129928571Y-76452380D01*
X129833333Y-76595238D01*
X129738095Y-76690476D01*
X129642857Y-76738095D01*
X130547619Y-76452380D02*
X131214285Y-76452380D01*
X130785714Y-77452380D01*
X119357142Y-77452380D02*
X118880952Y-77452380D01*
X118880952Y-76452380D01*
X120214285Y-77452380D02*
X119642857Y-77452380D01*
X119928571Y-77452380D02*
X119928571Y-76452380D01*
X119833333Y-76595238D01*
X119738095Y-76690476D01*
X119642857Y-76738095D01*
X120785714Y-76880952D02*
X120690476Y-76833333D01*
X120642857Y-76785714D01*
X120595238Y-76690476D01*
X120595238Y-76642857D01*
X120642857Y-76547619D01*
X120690476Y-76500000D01*
X120785714Y-76452380D01*
X120976190Y-76452380D01*
X121071428Y-76500000D01*
X121119047Y-76547619D01*
X121166666Y-76642857D01*
X121166666Y-76690476D01*
X121119047Y-76785714D01*
X121071428Y-76833333D01*
X120976190Y-76880952D01*
X120785714Y-76880952D01*
X120690476Y-76928571D01*
X120642857Y-76976190D01*
X120595238Y-77071428D01*
X120595238Y-77261904D01*
X120642857Y-77357142D01*
X120690476Y-77404761D01*
X120785714Y-77452380D01*
X120976190Y-77452380D01*
X121071428Y-77404761D01*
X121119047Y-77357142D01*
X121166666Y-77261904D01*
X121166666Y-77071428D01*
X121119047Y-76976190D01*
X121071428Y-76928571D01*
X120976190Y-76880952D01*
X109357142Y-77452380D02*
X108880952Y-77452380D01*
X108880952Y-76452380D01*
X110214285Y-77452380D02*
X109642857Y-77452380D01*
X109928571Y-77452380D02*
X109928571Y-76452380D01*
X109833333Y-76595238D01*
X109738095Y-76690476D01*
X109642857Y-76738095D01*
X110690476Y-77452380D02*
X110880952Y-77452380D01*
X110976190Y-77404761D01*
X111023809Y-77357142D01*
X111119047Y-77214285D01*
X111166666Y-77023809D01*
X111166666Y-76642857D01*
X111119047Y-76547619D01*
X111071428Y-76500000D01*
X110976190Y-76452380D01*
X110785714Y-76452380D01*
X110690476Y-76500000D01*
X110642857Y-76547619D01*
X110595238Y-76642857D01*
X110595238Y-76880952D01*
X110642857Y-76976190D01*
X110690476Y-77023809D01*
X110785714Y-77071428D01*
X110976190Y-77071428D01*
X111071428Y-77023809D01*
X111119047Y-76976190D01*
X111166666Y-76880952D01*
X99357142Y-77452380D02*
X98880952Y-77452380D01*
X98880952Y-76452380D01*
X99642857Y-76547619D02*
X99690476Y-76500000D01*
X99785714Y-76452380D01*
X100023809Y-76452380D01*
X100119047Y-76500000D01*
X100166666Y-76547619D01*
X100214285Y-76642857D01*
X100214285Y-76738095D01*
X100166666Y-76880952D01*
X99595238Y-77452380D01*
X100214285Y-77452380D01*
X100833333Y-76452380D02*
X100928571Y-76452380D01*
X101023809Y-76500000D01*
X101071428Y-76547619D01*
X101119047Y-76642857D01*
X101166666Y-76833333D01*
X101166666Y-77071428D01*
X101119047Y-77261904D01*
X101071428Y-77357142D01*
X101023809Y-77404761D01*
X100928571Y-77452380D01*
X100833333Y-77452380D01*
X100738095Y-77404761D01*
X100690476Y-77357142D01*
X100642857Y-77261904D01*
X100595238Y-77071428D01*
X100595238Y-76833333D01*
X100642857Y-76642857D01*
X100690476Y-76547619D01*
X100738095Y-76500000D01*
X100833333Y-76452380D01*
X146770933Y-68554895D02*
X146770933Y-69135466D01*
X146809638Y-69251580D01*
X146887047Y-69328990D01*
X147003161Y-69367695D01*
X147080571Y-69367695D01*
X146422590Y-68632304D02*
X146383885Y-68593600D01*
X146306476Y-68554895D01*
X146112952Y-68554895D01*
X146035542Y-68593600D01*
X145996838Y-68632304D01*
X145958133Y-68709714D01*
X145958133Y-68787123D01*
X145996838Y-68903238D01*
X146461295Y-69367695D01*
X145958133Y-69367695D01*
%LPC*%
D12*
X115500000Y-119750000D03*
X115500000Y-118250000D03*
X120500000Y-118250000D03*
X120500000Y-119750000D03*
X125500000Y-113000000D03*
X125500000Y-111500000D03*
X130500000Y-111500000D03*
X130500000Y-113000000D03*
D13*
X135600000Y-101543750D03*
X135600000Y-103293750D03*
X140400000Y-103293750D03*
X140400000Y-101543750D03*
D12*
X130500000Y-119750000D03*
X130500000Y-118250000D03*
X125500000Y-118250000D03*
X125500000Y-119750000D03*
D14*
X111750000Y-122500000D03*
X110749240Y-122500000D03*
D13*
X145600000Y-93125000D03*
X145600000Y-94875000D03*
X150400000Y-94875000D03*
X150400000Y-93125000D03*
D14*
X112000760Y-103000000D03*
X111000000Y-103000000D03*
D15*
X108108600Y-123478000D03*
X108108600Y-120938000D03*
X108108600Y-118398000D03*
X108108600Y-115858000D03*
X108108600Y-113318000D03*
X108108600Y-110778000D03*
X108108600Y-108238000D03*
X108108600Y-105698000D03*
X108108600Y-103158000D03*
X108108600Y-100618000D03*
X108108600Y-98078000D03*
X108108600Y-95538000D03*
X92888600Y-95538000D03*
X92888600Y-98078000D03*
X92888600Y-100618000D03*
X92888600Y-103158000D03*
X92888600Y-105698000D03*
X92888600Y-108238000D03*
X92888600Y-110778000D03*
X92888600Y-113318000D03*
X92888600Y-115858000D03*
X92888600Y-118398000D03*
X92888600Y-120938000D03*
X92888600Y-123478000D03*
D13*
X120400000Y-93125000D03*
X120400000Y-94875000D03*
X115600000Y-94875000D03*
X115600000Y-93125000D03*
X125600000Y-93125000D03*
X125600000Y-94875000D03*
X130400000Y-94875000D03*
X130400000Y-93125000D03*
D12*
X160500000Y-113000000D03*
X160500000Y-111500000D03*
X155500000Y-111500000D03*
X155500000Y-113000000D03*
D16*
X112250000Y-126500000D03*
X118750000Y-126500000D03*
D13*
X140400000Y-93125000D03*
X140400000Y-94875000D03*
X135600000Y-94875000D03*
X135600000Y-93125000D03*
D12*
X120500000Y-113000000D03*
X120500000Y-111500000D03*
X115500000Y-111500000D03*
X115500000Y-113000000D03*
X150500000Y-119750000D03*
X150500000Y-118250000D03*
X145500000Y-118250000D03*
X145500000Y-119750000D03*
D13*
X160400000Y-93125000D03*
X160400000Y-94875000D03*
X155600000Y-94875000D03*
X155600000Y-93125000D03*
X155600000Y-101543750D03*
X155600000Y-103293750D03*
X160400000Y-103293750D03*
X160400000Y-101543750D03*
D12*
X140500000Y-113000000D03*
X140500000Y-111500000D03*
X135500000Y-111500000D03*
X135500000Y-113000000D03*
D13*
X115600000Y-101543750D03*
X115600000Y-103293750D03*
X120400000Y-103293750D03*
X120400000Y-101543750D03*
X130400000Y-101543750D03*
X130400000Y-103293750D03*
X125600000Y-103293750D03*
X125600000Y-101543750D03*
D12*
X155500000Y-119750000D03*
X155500000Y-118250000D03*
X160500000Y-118250000D03*
X160500000Y-119750000D03*
X135500000Y-119750000D03*
X135500000Y-118250000D03*
X140500000Y-118250000D03*
X140500000Y-119750000D03*
D13*
X150400000Y-101543750D03*
X150400000Y-103293750D03*
X145600000Y-103293750D03*
X145600000Y-101543750D03*
D12*
X145500000Y-113000000D03*
X145500000Y-111500000D03*
X150500000Y-111500000D03*
X150500000Y-113000000D03*
D14*
X147250760Y-51500000D03*
X146250000Y-51500000D03*
D12*
X137500000Y-54250000D03*
X137500000Y-55750000D03*
X142500000Y-55750000D03*
X142500000Y-54250000D03*
X132500000Y-54250000D03*
X132500000Y-55750000D03*
X127500000Y-55750000D03*
X127500000Y-54250000D03*
X117500000Y-54250000D03*
X117500000Y-55750000D03*
X122500000Y-55750000D03*
X122500000Y-54250000D03*
X112500000Y-54250000D03*
X112500000Y-55750000D03*
X107500000Y-55750000D03*
X107500000Y-54250000D03*
X97500000Y-54250000D03*
X97500000Y-55750000D03*
X102500000Y-55750000D03*
X102500000Y-54250000D03*
X142500000Y-61000000D03*
X142500000Y-62500000D03*
X137500000Y-62500000D03*
X137500000Y-61000000D03*
X127500000Y-61000000D03*
X127500000Y-62500000D03*
X132500000Y-62500000D03*
X132500000Y-61000000D03*
X122500000Y-61000000D03*
X122500000Y-62500000D03*
X117500000Y-62500000D03*
X117500000Y-61000000D03*
X107500000Y-61000000D03*
X107500000Y-62500000D03*
X112500000Y-62500000D03*
X112500000Y-61000000D03*
X102500000Y-61000000D03*
X102500000Y-62500000D03*
X97500000Y-62500000D03*
X97500000Y-61000000D03*
D13*
X137600000Y-72456250D03*
X137600000Y-70706250D03*
X142400000Y-70706250D03*
X142400000Y-72456250D03*
X132400000Y-72456250D03*
X132400000Y-70706250D03*
X127600000Y-70706250D03*
X127600000Y-72456250D03*
X117600000Y-72456250D03*
X117600000Y-70706250D03*
X122400000Y-70706250D03*
X122400000Y-72456250D03*
X112400000Y-72456250D03*
X112400000Y-70706250D03*
X107600000Y-70706250D03*
X107600000Y-72456250D03*
X97600000Y-72456250D03*
X97600000Y-70706250D03*
X102400000Y-70706250D03*
X102400000Y-72456250D03*
X142400000Y-80875000D03*
X142400000Y-79125000D03*
X137600000Y-79125000D03*
X137600000Y-80875000D03*
X127600000Y-80875000D03*
X127600000Y-79125000D03*
X132400000Y-79125000D03*
X132400000Y-80875000D03*
X122400000Y-80875000D03*
X122400000Y-79125000D03*
X117600000Y-79125000D03*
X117600000Y-80875000D03*
X107600000Y-80875000D03*
X107600000Y-79125000D03*
X112400000Y-79125000D03*
X112400000Y-80875000D03*
X102400000Y-80875000D03*
X102400000Y-79125000D03*
X97600000Y-79125000D03*
X97600000Y-80875000D03*
D16*
X139250000Y-47500000D03*
X145750000Y-47500000D03*
D15*
X165111400Y-50522000D03*
X165111400Y-53062000D03*
X165111400Y-55602000D03*
X165111400Y-58142000D03*
X165111400Y-60682000D03*
X165111400Y-63222000D03*
X165111400Y-65762000D03*
X165111400Y-68302000D03*
X165111400Y-70842000D03*
X165111400Y-73382000D03*
X165111400Y-75922000D03*
X165111400Y-78462000D03*
X149891400Y-78462000D03*
X149891400Y-75922000D03*
X149891400Y-73382000D03*
X149891400Y-70842000D03*
X149891400Y-68302000D03*
X149891400Y-65762000D03*
X149891400Y-63222000D03*
X149891400Y-60682000D03*
X149891400Y-58142000D03*
X149891400Y-55602000D03*
X149891400Y-53062000D03*
X149891400Y-50522000D03*
D14*
X147000000Y-71000000D03*
X145999240Y-71000000D03*
M02*
