G04 #@! TF.GenerationSoftware,KiCad,Pcbnew,5.1.8*
G04 #@! TF.CreationDate,2020-12-11T01:20:56+09:00*
G04 #@! TF.ProjectId,hikari,68696b61-7269-42e6-9b69-6361645f7063,rev?*
G04 #@! TF.SameCoordinates,Original*
G04 #@! TF.FileFunction,Copper,L2,Bot*
G04 #@! TF.FilePolarity,Positive*
%FSLAX46Y46*%
G04 Gerber Fmt 4.6, Leading zero omitted, Abs format (unit mm)*
G04 Created by KiCad (PCBNEW 5.1.8) date 2020-12-11 01:20:56*
%MOMM*%
%LPD*%
G01*
G04 APERTURE LIST*
G04 #@! TA.AperFunction,SMDPad,CuDef*
%ADD10R,1.800000X0.820000*%
G04 #@! TD*
G04 #@! TA.AperFunction,SMDPad,CuDef*
%ADD11R,1.600000X1.000000*%
G04 #@! TD*
G04 #@! TA.AperFunction,SMDPad,CuDef*
%ADD12R,0.635000X1.143000*%
G04 #@! TD*
G04 #@! TA.AperFunction,ComponentPad*
%ADD13C,1.524000*%
G04 #@! TD*
G04 #@! TA.AperFunction,ComponentPad*
%ADD14C,2.000000*%
G04 #@! TD*
G04 #@! TA.AperFunction,ViaPad*
%ADD15C,0.800000*%
G04 #@! TD*
G04 #@! TA.AperFunction,Conductor*
%ADD16C,0.250000*%
G04 #@! TD*
G04 #@! TA.AperFunction,Conductor*
%ADD17C,0.500000*%
G04 #@! TD*
G04 APERTURE END LIST*
D10*
X115500000Y-119750000D03*
X115500000Y-118250000D03*
X120500000Y-118250000D03*
X120500000Y-119750000D03*
X125500000Y-113000000D03*
X125500000Y-111500000D03*
X130500000Y-111500000D03*
X130500000Y-113000000D03*
D11*
X135600000Y-101543750D03*
X135600000Y-103293750D03*
X140400000Y-103293750D03*
X140400000Y-101543750D03*
D10*
X130500000Y-119750000D03*
X130500000Y-118250000D03*
X125500000Y-118250000D03*
X125500000Y-119750000D03*
D12*
X111750000Y-122500000D03*
X110749240Y-122500000D03*
D11*
X145600000Y-93125000D03*
X145600000Y-94875000D03*
X150400000Y-94875000D03*
X150400000Y-93125000D03*
D12*
X112000760Y-103000000D03*
X111000000Y-103000000D03*
D13*
X108108600Y-123478000D03*
X108108600Y-120938000D03*
X108108600Y-118398000D03*
X108108600Y-115858000D03*
X108108600Y-113318000D03*
X108108600Y-110778000D03*
X108108600Y-108238000D03*
X108108600Y-105698000D03*
X108108600Y-103158000D03*
X108108600Y-100618000D03*
X108108600Y-98078000D03*
X108108600Y-95538000D03*
X92888600Y-95538000D03*
X92888600Y-98078000D03*
X92888600Y-100618000D03*
X92888600Y-103158000D03*
X92888600Y-105698000D03*
X92888600Y-108238000D03*
X92888600Y-110778000D03*
X92888600Y-113318000D03*
X92888600Y-115858000D03*
X92888600Y-118398000D03*
X92888600Y-120938000D03*
X92888600Y-123478000D03*
D11*
X120400000Y-93125000D03*
X120400000Y-94875000D03*
X115600000Y-94875000D03*
X115600000Y-93125000D03*
X125600000Y-93125000D03*
X125600000Y-94875000D03*
X130400000Y-94875000D03*
X130400000Y-93125000D03*
D10*
X160500000Y-113000000D03*
X160500000Y-111500000D03*
X155500000Y-111500000D03*
X155500000Y-113000000D03*
D14*
X112250000Y-126500000D03*
X118750000Y-126500000D03*
D11*
X140400000Y-93125000D03*
X140400000Y-94875000D03*
X135600000Y-94875000D03*
X135600000Y-93125000D03*
D10*
X120500000Y-113000000D03*
X120500000Y-111500000D03*
X115500000Y-111500000D03*
X115500000Y-113000000D03*
X150500000Y-119750000D03*
X150500000Y-118250000D03*
X145500000Y-118250000D03*
X145500000Y-119750000D03*
D11*
X160400000Y-93125000D03*
X160400000Y-94875000D03*
X155600000Y-94875000D03*
X155600000Y-93125000D03*
X155600000Y-101543750D03*
X155600000Y-103293750D03*
X160400000Y-103293750D03*
X160400000Y-101543750D03*
D10*
X140500000Y-113000000D03*
X140500000Y-111500000D03*
X135500000Y-111500000D03*
X135500000Y-113000000D03*
D11*
X115600000Y-101543750D03*
X115600000Y-103293750D03*
X120400000Y-103293750D03*
X120400000Y-101543750D03*
X130400000Y-101543750D03*
X130400000Y-103293750D03*
X125600000Y-103293750D03*
X125600000Y-101543750D03*
D10*
X155500000Y-119750000D03*
X155500000Y-118250000D03*
X160500000Y-118250000D03*
X160500000Y-119750000D03*
X135500000Y-119750000D03*
X135500000Y-118250000D03*
X140500000Y-118250000D03*
X140500000Y-119750000D03*
D11*
X150400000Y-101543750D03*
X150400000Y-103293750D03*
X145600000Y-103293750D03*
X145600000Y-101543750D03*
D10*
X145500000Y-113000000D03*
X145500000Y-111500000D03*
X150500000Y-111500000D03*
X150500000Y-113000000D03*
D12*
X147250760Y-51500000D03*
X146250000Y-51500000D03*
D10*
X137500000Y-54250000D03*
X137500000Y-55750000D03*
X142500000Y-55750000D03*
X142500000Y-54250000D03*
X132500000Y-54250000D03*
X132500000Y-55750000D03*
X127500000Y-55750000D03*
X127500000Y-54250000D03*
X117500000Y-54250000D03*
X117500000Y-55750000D03*
X122500000Y-55750000D03*
X122500000Y-54250000D03*
X112500000Y-54250000D03*
X112500000Y-55750000D03*
X107500000Y-55750000D03*
X107500000Y-54250000D03*
X97500000Y-54250000D03*
X97500000Y-55750000D03*
X102500000Y-55750000D03*
X102500000Y-54250000D03*
X142500000Y-61000000D03*
X142500000Y-62500000D03*
X137500000Y-62500000D03*
X137500000Y-61000000D03*
X127500000Y-61000000D03*
X127500000Y-62500000D03*
X132500000Y-62500000D03*
X132500000Y-61000000D03*
X122500000Y-61000000D03*
X122500000Y-62500000D03*
X117500000Y-62500000D03*
X117500000Y-61000000D03*
X107500000Y-61000000D03*
X107500000Y-62500000D03*
X112500000Y-62500000D03*
X112500000Y-61000000D03*
X102500000Y-61000000D03*
X102500000Y-62500000D03*
X97500000Y-62500000D03*
X97500000Y-61000000D03*
D11*
X137600000Y-72456250D03*
X137600000Y-70706250D03*
X142400000Y-70706250D03*
X142400000Y-72456250D03*
X132400000Y-72456250D03*
X132400000Y-70706250D03*
X127600000Y-70706250D03*
X127600000Y-72456250D03*
X117600000Y-72456250D03*
X117600000Y-70706250D03*
X122400000Y-70706250D03*
X122400000Y-72456250D03*
X112400000Y-72456250D03*
X112400000Y-70706250D03*
X107600000Y-70706250D03*
X107600000Y-72456250D03*
X97600000Y-72456250D03*
X97600000Y-70706250D03*
X102400000Y-70706250D03*
X102400000Y-72456250D03*
X142400000Y-80875000D03*
X142400000Y-79125000D03*
X137600000Y-79125000D03*
X137600000Y-80875000D03*
X127600000Y-80875000D03*
X127600000Y-79125000D03*
X132400000Y-79125000D03*
X132400000Y-80875000D03*
X122400000Y-80875000D03*
X122400000Y-79125000D03*
X117600000Y-79125000D03*
X117600000Y-80875000D03*
X107600000Y-80875000D03*
X107600000Y-79125000D03*
X112400000Y-79125000D03*
X112400000Y-80875000D03*
X102400000Y-80875000D03*
X102400000Y-79125000D03*
X97600000Y-79125000D03*
X97600000Y-80875000D03*
D14*
X139250000Y-47500000D03*
X145750000Y-47500000D03*
D13*
X165111400Y-50522000D03*
X165111400Y-53062000D03*
X165111400Y-55602000D03*
X165111400Y-58142000D03*
X165111400Y-60682000D03*
X165111400Y-63222000D03*
X165111400Y-65762000D03*
X165111400Y-68302000D03*
X165111400Y-70842000D03*
X165111400Y-73382000D03*
X165111400Y-75922000D03*
X165111400Y-78462000D03*
X149891400Y-78462000D03*
X149891400Y-75922000D03*
X149891400Y-73382000D03*
X149891400Y-70842000D03*
X149891400Y-68302000D03*
X149891400Y-65762000D03*
X149891400Y-63222000D03*
X149891400Y-60682000D03*
X149891400Y-58142000D03*
X149891400Y-55602000D03*
X149891400Y-53062000D03*
X149891400Y-50522000D03*
D12*
X147000000Y-71000000D03*
X145999240Y-71000000D03*
D15*
X111250000Y-105500000D03*
X113000000Y-109500000D03*
X113500000Y-116250000D03*
X112500000Y-111500000D03*
X114500000Y-115350000D03*
X146750000Y-68500000D03*
X145000000Y-64500000D03*
X144500000Y-57750000D03*
X143500000Y-58650000D03*
X145500000Y-62500000D03*
D16*
X111000000Y-103000000D02*
X111000000Y-105250000D01*
X110749240Y-125000760D02*
X110000000Y-125750000D01*
X111000000Y-105250000D02*
X111250000Y-105500000D01*
X110749240Y-122500000D02*
X110749240Y-125000760D01*
X110000000Y-125750000D02*
X95160600Y-125750000D01*
X95160600Y-125750000D02*
X92888600Y-123478000D01*
X107250000Y-114500000D02*
X110500000Y-114500000D01*
X113781249Y-117781249D02*
X113781249Y-119674999D01*
X113856250Y-119750000D02*
X115006250Y-119750000D01*
X106750000Y-116750000D02*
X106750000Y-115000000D01*
X113781249Y-119674999D02*
X113856250Y-119750000D01*
X106945001Y-116945001D02*
X106750000Y-116750000D01*
X111000000Y-120724160D02*
X111000000Y-117500000D01*
X111750000Y-121474160D02*
X111000000Y-120724160D01*
X110445001Y-116945001D02*
X106945001Y-116945001D01*
X111750000Y-122500000D02*
X111750000Y-121474160D01*
X110500000Y-114500000D02*
X113781249Y-117781249D01*
X111000000Y-117500000D02*
X110445001Y-116945001D01*
X106750000Y-115000000D02*
X107250000Y-114500000D01*
D17*
X111000000Y-108750000D02*
X111750000Y-108000000D01*
X111750000Y-108000000D02*
X116000000Y-108000000D01*
X149910000Y-121250000D02*
X150500000Y-120660000D01*
X149910000Y-121250000D02*
X159671263Y-121250000D01*
X121250000Y-114500000D02*
X120500000Y-113750000D01*
X111000000Y-112000000D02*
X111000000Y-108750000D01*
X161500000Y-114500000D02*
X152000000Y-114500000D01*
X137000000Y-107000000D02*
X138000000Y-107000000D01*
X135600000Y-105600000D02*
X137000000Y-107000000D01*
X135600000Y-103293750D02*
X135600000Y-105600000D01*
X125600000Y-105653560D02*
X126946440Y-107000000D01*
X162000000Y-121250000D02*
X163000000Y-120250000D01*
X163000000Y-115250000D02*
X162250000Y-114500000D01*
X159671263Y-121250000D02*
X162000000Y-121250000D01*
X131250000Y-114500000D02*
X130500000Y-113750000D01*
X132000000Y-114500000D02*
X131250000Y-114500000D01*
X156800000Y-98000000D02*
X147000000Y-98000000D01*
X145600000Y-96600000D02*
X147000000Y-98000000D01*
X130500000Y-120421263D02*
X130500000Y-119750000D01*
X121000000Y-120421263D02*
X121000000Y-119750000D01*
X120171263Y-121250000D02*
X121000000Y-120421263D01*
X139910000Y-121250000D02*
X149910000Y-121250000D01*
X160500000Y-113750000D02*
X160500000Y-113000000D01*
X161250000Y-114500000D02*
X160500000Y-113750000D01*
X152000000Y-114500000D02*
X142000000Y-114500000D01*
X159671263Y-121250000D02*
X160500000Y-120421263D01*
X142000000Y-114500000D02*
X132000000Y-114500000D01*
X132000000Y-114500000D02*
X121500000Y-114500000D01*
X140500000Y-113750000D02*
X140500000Y-113000000D01*
X113500000Y-114500000D02*
X111000000Y-112000000D01*
X121500000Y-114500000D02*
X113500000Y-114500000D01*
X157000000Y-98000000D02*
X155600000Y-96600000D01*
X150500000Y-113750000D02*
X150500000Y-113000000D01*
X152000000Y-114500000D02*
X151250000Y-114500000D01*
X155600000Y-96600000D02*
X155600000Y-94875000D01*
X163000000Y-98000000D02*
X157000000Y-98000000D01*
X163750000Y-98750000D02*
X163000000Y-98000000D01*
X127000000Y-107000000D02*
X138000000Y-107000000D01*
X126946440Y-107000000D02*
X127000000Y-107000000D01*
X145600000Y-94875000D02*
X145600000Y-96600000D01*
X161500000Y-114500000D02*
X161250000Y-114500000D01*
X117000000Y-107000000D02*
X127000000Y-107000000D01*
X113250000Y-121250000D02*
X119177513Y-121250000D01*
X125600000Y-103293750D02*
X125600000Y-105653560D01*
X115600000Y-105600000D02*
X117000000Y-107000000D01*
X115600000Y-103293750D02*
X115600000Y-105600000D01*
X141250000Y-114500000D02*
X140500000Y-113750000D01*
X142000000Y-114500000D02*
X141250000Y-114500000D01*
X151250000Y-114500000D02*
X150500000Y-113750000D01*
X129671263Y-121250000D02*
X130500000Y-120421263D01*
X119177513Y-121250000D02*
X129671263Y-121250000D01*
X140500000Y-120660000D02*
X140500000Y-119750000D01*
X150500000Y-120660000D02*
X150500000Y-119750000D01*
X135600000Y-96600000D02*
X135600000Y-94875000D01*
X137000000Y-98000000D02*
X135600000Y-96600000D01*
X157000000Y-107000000D02*
X158000000Y-107000000D01*
X139910000Y-121250000D02*
X140500000Y-120660000D01*
X129671263Y-121250000D02*
X139910000Y-121250000D01*
X162250000Y-114500000D02*
X161500000Y-114500000D01*
X163000000Y-120250000D02*
X163000000Y-115250000D01*
X145600000Y-103293750D02*
X145600000Y-105600000D01*
X147000000Y-107000000D02*
X158000000Y-107000000D01*
X111750000Y-117000000D02*
X111750000Y-119750000D01*
X110608000Y-115858000D02*
X111750000Y-117000000D01*
X108108600Y-115858000D02*
X110608000Y-115858000D01*
X116000000Y-108000000D02*
X117000000Y-107000000D01*
X162750000Y-107000000D02*
X163750000Y-106000000D01*
X158000000Y-107000000D02*
X162750000Y-107000000D01*
X130500000Y-113750000D02*
X130500000Y-113000000D01*
X121500000Y-114500000D02*
X121250000Y-114500000D01*
X120500000Y-113750000D02*
X120500000Y-113000000D01*
X125600000Y-96600000D02*
X125600000Y-94875000D01*
X127000000Y-98000000D02*
X125600000Y-96600000D01*
X147000000Y-98000000D02*
X127000000Y-98000000D01*
X138000000Y-107000000D02*
X147000000Y-107000000D01*
X115600000Y-96703560D02*
X115600000Y-94875000D01*
X116896440Y-98000000D02*
X115600000Y-96703560D01*
X127000000Y-98000000D02*
X116896440Y-98000000D01*
X155600000Y-105600000D02*
X157000000Y-107000000D01*
X155600000Y-103293750D02*
X155600000Y-105600000D01*
X145600000Y-105600000D02*
X147000000Y-107000000D01*
X160500000Y-120421263D02*
X160500000Y-119750000D01*
X111750000Y-119750000D02*
X113250000Y-121250000D01*
X163750000Y-106000000D02*
X163750000Y-98750000D01*
D16*
X122656250Y-119750000D02*
X125500000Y-119750000D01*
X121156250Y-118250000D02*
X122656250Y-119750000D01*
X120006250Y-118250000D02*
X121156250Y-118250000D01*
D17*
X164750000Y-92500000D02*
X163499990Y-91249990D01*
X163260010Y-110239990D02*
X164750000Y-108750000D01*
X159957110Y-99649990D02*
X152293760Y-99649990D01*
X160400000Y-100092880D02*
X159957110Y-99649990D01*
X108108600Y-120938000D02*
X102688000Y-120938000D01*
X141250010Y-91249990D02*
X140400000Y-92100000D01*
X142275010Y-91249990D02*
X141250010Y-91249990D01*
X130400000Y-92100000D02*
X130400000Y-93125000D01*
X121350010Y-99649990D02*
X120400000Y-100600000D01*
X115594997Y-116989990D02*
X114239990Y-116989990D01*
X150400000Y-92350000D02*
X150400000Y-93125000D01*
X154239990Y-110239990D02*
X156239990Y-110239990D01*
X156010010Y-110239990D02*
X156239990Y-110239990D01*
X125500000Y-110590000D02*
X125500000Y-111500000D01*
X145850010Y-116989990D02*
X136088747Y-116989990D01*
X125500000Y-117340000D02*
X125500000Y-118250000D01*
X136088747Y-116989990D02*
X125850010Y-116989990D01*
X115006250Y-117578737D02*
X115006250Y-118250000D01*
X135500000Y-110828737D02*
X135500000Y-111500000D01*
X115594997Y-116989990D02*
X115006250Y-117578737D01*
X125850010Y-116989990D02*
X115594997Y-116989990D01*
X145500000Y-110828737D02*
X145500000Y-111500000D01*
X140400000Y-92100000D02*
X140400000Y-93125000D01*
X115588747Y-110239990D02*
X115000000Y-110828737D01*
X155500000Y-110750000D02*
X156010010Y-110239990D01*
X114239990Y-116989990D02*
X113500000Y-116250000D01*
X160400000Y-101543750D02*
X160400000Y-100092880D01*
X155500000Y-118250000D02*
X155500000Y-118000000D01*
X160400000Y-92100000D02*
X161250000Y-91250000D01*
X160400000Y-93125000D02*
X160400000Y-92100000D01*
X115086804Y-99649990D02*
X113424990Y-97988176D01*
X145850010Y-116989990D02*
X145500000Y-117340000D01*
X135500000Y-117578737D02*
X135500000Y-118250000D01*
X136088747Y-116989990D02*
X135500000Y-117578737D01*
X163499990Y-91249990D02*
X159957110Y-91249990D01*
X164750000Y-108750000D02*
X164750000Y-92500000D01*
X161250000Y-91250000D02*
X161750000Y-91250000D01*
X131250010Y-91249990D02*
X130400000Y-92100000D01*
X132275010Y-91249990D02*
X131250010Y-91249990D01*
X120400000Y-92100000D02*
X120400000Y-93125000D01*
X151500010Y-91249990D02*
X150400000Y-92350000D01*
X152275010Y-91249990D02*
X151500010Y-91249990D01*
X155500000Y-111500000D02*
X155500000Y-110750000D01*
X115000000Y-110828737D02*
X115000000Y-111000000D01*
X100148000Y-118398000D02*
X92888600Y-118398000D01*
X102688000Y-120938000D02*
X100148000Y-118398000D01*
X132275010Y-91249990D02*
X122275010Y-91249990D01*
X151321885Y-99649990D02*
X150400000Y-100571875D01*
X152293760Y-99649990D02*
X151321885Y-99649990D01*
X156239990Y-110239990D02*
X163260010Y-110239990D01*
X141350010Y-99649990D02*
X140400000Y-100600000D01*
X142293760Y-99649990D02*
X141350010Y-99649990D01*
X115365008Y-91249990D02*
X122275010Y-91249990D01*
X122293760Y-99649990D02*
X115086804Y-99649990D01*
X113424990Y-93190008D02*
X115365008Y-91249990D01*
X113424990Y-97988176D02*
X113424990Y-93190008D01*
X142293760Y-99649990D02*
X131100010Y-99649990D01*
X131100010Y-99649990D02*
X122293760Y-99649990D01*
X152293760Y-99649990D02*
X142293760Y-99649990D01*
X131100010Y-99649990D02*
X130400000Y-100350000D01*
X130400000Y-100350000D02*
X130400000Y-101543750D01*
X120400000Y-100600000D02*
X120400000Y-101543750D01*
X122293760Y-99649990D02*
X121350010Y-99649990D01*
X140400000Y-100600000D02*
X140400000Y-101543750D01*
X150400000Y-100571875D02*
X150400000Y-101543750D01*
X115000000Y-111500000D02*
X115000000Y-110750000D01*
X154489990Y-116989990D02*
X145850010Y-116989990D01*
X155500000Y-118000000D02*
X154489990Y-116989990D01*
X121250010Y-91249990D02*
X120400000Y-92100000D01*
X122275010Y-91249990D02*
X121250010Y-91249990D01*
X125850010Y-110239990D02*
X115588747Y-110239990D01*
X115000000Y-110750000D02*
X113750000Y-109500000D01*
X125850010Y-116989990D02*
X125500000Y-117340000D01*
X92888600Y-118398000D02*
X92888600Y-115858000D01*
X145500000Y-117340000D02*
X145500000Y-118250000D01*
X152275010Y-91249990D02*
X142275010Y-91249990D01*
X142275010Y-91249990D02*
X132275010Y-91249990D01*
X113750000Y-109500000D02*
X113000000Y-109500000D01*
X159957110Y-91249990D02*
X152275010Y-91249990D01*
X146088747Y-110239990D02*
X145500000Y-110828737D01*
X154239990Y-110239990D02*
X146088747Y-110239990D01*
X136088747Y-110239990D02*
X135500000Y-110828737D01*
X146088747Y-110239990D02*
X136088747Y-110239990D01*
X125850010Y-110239990D02*
X125500000Y-110590000D01*
X136088747Y-110239990D02*
X125850010Y-110239990D01*
D16*
X130500000Y-118250000D02*
X131650000Y-118250000D01*
X133150000Y-119750000D02*
X135500000Y-119750000D01*
X131650000Y-118250000D02*
X133150000Y-119750000D01*
X143150000Y-119750000D02*
X145500000Y-119750000D01*
X140500000Y-118250000D02*
X141650000Y-118250000D01*
X141650000Y-118250000D02*
X143150000Y-119750000D01*
X153150000Y-119750000D02*
X155500000Y-119750000D01*
X151650000Y-118250000D02*
X153150000Y-119750000D01*
X150500000Y-118250000D02*
X151650000Y-118250000D01*
X161500000Y-118250000D02*
X161750000Y-118000000D01*
X115000000Y-113000000D02*
X114000000Y-113000000D01*
X114000000Y-113000000D02*
X112500000Y-111500000D01*
X161750000Y-115750000D02*
X161350000Y-115350000D01*
X160500000Y-118250000D02*
X161500000Y-118250000D01*
X161750000Y-118000000D02*
X161750000Y-115750000D01*
X161350000Y-115350000D02*
X114500000Y-115350000D01*
X122650000Y-113000000D02*
X125500000Y-113000000D01*
X121150000Y-111500000D02*
X122650000Y-113000000D01*
X120000000Y-111500000D02*
X121150000Y-111500000D01*
X133150000Y-113000000D02*
X135500000Y-113000000D01*
X131650000Y-111500000D02*
X133150000Y-113000000D01*
X130500000Y-111500000D02*
X131650000Y-111500000D01*
X141650000Y-111500000D02*
X143150000Y-113000000D01*
X140500000Y-111500000D02*
X141650000Y-111500000D01*
X143150000Y-113000000D02*
X145500000Y-113000000D01*
X153150000Y-113000000D02*
X155500000Y-113000000D01*
X151650000Y-111500000D02*
X153150000Y-113000000D01*
X150500000Y-111500000D02*
X151650000Y-111500000D01*
X121450000Y-103293750D02*
X123200000Y-101543750D01*
X120400000Y-103293750D02*
X121450000Y-103293750D01*
X123200000Y-101543750D02*
X125600000Y-101543750D01*
X133200000Y-101543750D02*
X135600000Y-101543750D01*
X131450000Y-103293750D02*
X133200000Y-101543750D01*
X130400000Y-103293750D02*
X131450000Y-103293750D01*
X143200000Y-101543750D02*
X145600000Y-101543750D01*
X141450000Y-103293750D02*
X143200000Y-101543750D01*
X140400000Y-103293750D02*
X141450000Y-103293750D01*
X153200000Y-101543750D02*
X155600000Y-101543750D01*
X151450000Y-103293750D02*
X153200000Y-101543750D01*
X150400000Y-103293750D02*
X151450000Y-103293750D01*
X161825010Y-98575010D02*
X114825010Y-98575010D01*
X162500000Y-102750000D02*
X162500000Y-99250000D01*
X114550000Y-93125000D02*
X115600000Y-93125000D01*
X162500000Y-99250000D02*
X161825010Y-98575010D01*
X114825010Y-98575010D02*
X114000000Y-97750000D01*
X114000000Y-93675000D02*
X114550000Y-93125000D01*
X161956250Y-103293750D02*
X162500000Y-102750000D01*
X160400000Y-103293750D02*
X161956250Y-103293750D01*
X114000000Y-97750000D02*
X114000000Y-93675000D01*
X120400000Y-94875000D02*
X121450000Y-94875000D01*
X123200000Y-93125000D02*
X125600000Y-93125000D01*
X121450000Y-94875000D02*
X123200000Y-93125000D01*
X131450000Y-94875000D02*
X133200000Y-93125000D01*
X133200000Y-93125000D02*
X135600000Y-93125000D01*
X130400000Y-94875000D02*
X131450000Y-94875000D01*
X143200000Y-93125000D02*
X145600000Y-93125000D01*
X141450000Y-94875000D02*
X143200000Y-93125000D01*
X140400000Y-94875000D02*
X141450000Y-94875000D01*
X150400000Y-94875000D02*
X151450000Y-94875000D01*
X153200000Y-93125000D02*
X155600000Y-93125000D01*
X151450000Y-94875000D02*
X153200000Y-93125000D01*
X91385010Y-126000000D02*
X91885010Y-126500000D01*
X109750000Y-119000000D02*
X109750000Y-121750000D01*
X91385010Y-123114990D02*
X91385010Y-126000000D01*
X109750000Y-121750000D02*
X109250000Y-122250000D01*
X109250000Y-122250000D02*
X92250000Y-122250000D01*
X109148000Y-118398000D02*
X109750000Y-119000000D01*
X91885010Y-126500000D02*
X112250000Y-126500000D01*
X108108600Y-118398000D02*
X109148000Y-118398000D01*
X92250000Y-122250000D02*
X91385010Y-123114990D01*
X115600000Y-101543750D02*
X113457010Y-101543750D01*
X112543750Y-101543750D02*
X115600000Y-101543750D01*
X160500000Y-111500000D02*
X164750000Y-111500000D01*
X113457010Y-101543750D02*
X112000760Y-103000000D01*
X165750000Y-91000000D02*
X164750000Y-90000000D01*
X165750000Y-110500000D02*
X165750000Y-91000000D01*
X164750000Y-111500000D02*
X165750000Y-110500000D01*
X111000000Y-92000000D02*
X111000000Y-100000000D01*
X113000000Y-90000000D02*
X111000000Y-92000000D01*
X164750000Y-90000000D02*
X113000000Y-90000000D01*
X111000000Y-100000000D02*
X112543750Y-101543750D01*
X162839400Y-48250000D02*
X165111400Y-50522000D01*
X148000000Y-48250000D02*
X162839400Y-48250000D01*
X147250760Y-48999240D02*
X148000000Y-48250000D01*
X147250760Y-51500000D02*
X147250760Y-48999240D01*
X147000000Y-71000000D02*
X147000000Y-68750000D01*
X147000000Y-68750000D02*
X146750000Y-68500000D01*
X144218751Y-54325001D02*
X144143750Y-54250000D01*
X144218751Y-56218751D02*
X144218751Y-54325001D01*
X150750000Y-59500000D02*
X147500000Y-59500000D01*
X151250000Y-59000000D02*
X150750000Y-59500000D01*
X147000000Y-56500000D02*
X147554999Y-57054999D01*
X144143750Y-54250000D02*
X142993750Y-54250000D01*
X147000000Y-53275840D02*
X147000000Y-56500000D01*
X147500000Y-59500000D02*
X144218751Y-56218751D01*
X151250000Y-57250000D02*
X151250000Y-59000000D01*
X151054999Y-57054999D02*
X151250000Y-57250000D01*
X146250000Y-52525840D02*
X147000000Y-53275840D01*
X147554999Y-57054999D02*
X151054999Y-57054999D01*
X146250000Y-51500000D02*
X146250000Y-52525840D01*
D17*
X137000000Y-53578737D02*
X137000000Y-54250000D01*
X137828737Y-52750000D02*
X137000000Y-53578737D01*
X127500000Y-53578737D02*
X127500000Y-54250000D01*
X128328737Y-52750000D02*
X127500000Y-53578737D01*
X138822487Y-52750000D02*
X128328737Y-52750000D01*
X117500000Y-53340000D02*
X117500000Y-54250000D01*
X118090000Y-52750000D02*
X117500000Y-53340000D01*
X128328737Y-52750000D02*
X118090000Y-52750000D01*
X107500000Y-53340000D02*
X107500000Y-54250000D01*
X108090000Y-52750000D02*
X107500000Y-53340000D01*
X118090000Y-52750000D02*
X108090000Y-52750000D01*
X97500000Y-53578737D02*
X97500000Y-54250000D01*
X98328737Y-52750000D02*
X97500000Y-53578737D01*
X108090000Y-52750000D02*
X98328737Y-52750000D01*
X106000000Y-59500000D02*
X116000000Y-59500000D01*
X116000000Y-59500000D02*
X126000000Y-59500000D01*
X126000000Y-59500000D02*
X136500000Y-59500000D01*
X117500000Y-60250000D02*
X117500000Y-61000000D01*
X116750000Y-59500000D02*
X117500000Y-60250000D01*
X116000000Y-59500000D02*
X116750000Y-59500000D01*
X106750000Y-59500000D02*
X107500000Y-60250000D01*
X107500000Y-60250000D02*
X107500000Y-61000000D01*
X106000000Y-59500000D02*
X106750000Y-59500000D01*
X96500000Y-59500000D02*
X106000000Y-59500000D01*
X97500000Y-60250000D02*
X97500000Y-61000000D01*
X96750000Y-59500000D02*
X97500000Y-60250000D01*
X96500000Y-59500000D02*
X96750000Y-59500000D01*
X101200000Y-76000000D02*
X111000000Y-76000000D01*
X112400000Y-77400000D02*
X111000000Y-76000000D01*
X112400000Y-79125000D02*
X112400000Y-77400000D01*
X132400000Y-77400000D02*
X132400000Y-79125000D01*
X131000000Y-76000000D02*
X132400000Y-77400000D01*
X111000000Y-76000000D02*
X131000000Y-76000000D01*
X142400000Y-77296440D02*
X142400000Y-79125000D01*
X141103560Y-76000000D02*
X142400000Y-77296440D01*
X131000000Y-76000000D02*
X141103560Y-76000000D01*
X122400000Y-77400000D02*
X122400000Y-79125000D01*
X121000000Y-76000000D02*
X122400000Y-77400000D01*
X101000000Y-67000000D02*
X100000000Y-67000000D01*
X102400000Y-68400000D02*
X101000000Y-67000000D01*
X102400000Y-70706250D02*
X102400000Y-68400000D01*
X112400000Y-68400000D02*
X111000000Y-67000000D01*
X112400000Y-70706250D02*
X112400000Y-68400000D01*
X111000000Y-67000000D02*
X100000000Y-67000000D01*
X120000000Y-67000000D02*
X111000000Y-67000000D01*
X121000000Y-67000000D02*
X120000000Y-67000000D01*
X122400000Y-68400000D02*
X121000000Y-67000000D01*
X122400000Y-70706250D02*
X122400000Y-68400000D01*
X131000000Y-67000000D02*
X120000000Y-67000000D01*
X131053560Y-67000000D02*
X131000000Y-67000000D01*
X132400000Y-68346440D02*
X131053560Y-67000000D01*
X132400000Y-70706250D02*
X132400000Y-68346440D01*
X142400000Y-68400000D02*
X141000000Y-67000000D01*
X142400000Y-70706250D02*
X142400000Y-68400000D01*
X141000000Y-67000000D02*
X131000000Y-67000000D01*
X144750000Y-52750000D02*
X138822487Y-52750000D01*
X146250000Y-54250000D02*
X144750000Y-52750000D01*
X146250000Y-57000000D02*
X146250000Y-54250000D01*
X147392000Y-58142000D02*
X146250000Y-57000000D01*
X149891400Y-58142000D02*
X147392000Y-58142000D01*
X95750000Y-59500000D02*
X96500000Y-59500000D01*
X95000000Y-53750000D02*
X95000000Y-58750000D01*
X96000000Y-52750000D02*
X95000000Y-53750000D01*
X95000000Y-58750000D02*
X95750000Y-59500000D01*
X98328737Y-52750000D02*
X96000000Y-52750000D01*
X142000000Y-66000000D02*
X141000000Y-67000000D01*
X147000000Y-65250000D02*
X146250000Y-66000000D01*
X146250000Y-66000000D02*
X142000000Y-66000000D01*
X147000000Y-62000000D02*
X147000000Y-65250000D01*
X144500000Y-59500000D02*
X147000000Y-62000000D01*
X136500000Y-59500000D02*
X144500000Y-59500000D01*
X101000000Y-76000000D02*
X102400000Y-77400000D01*
X102400000Y-77400000D02*
X102400000Y-79125000D01*
X95000000Y-76000000D02*
X101000000Y-76000000D01*
X94250000Y-75250000D02*
X95000000Y-76000000D01*
X94250000Y-68000000D02*
X94250000Y-75250000D01*
X95250000Y-67000000D02*
X94250000Y-68000000D01*
X100000000Y-67000000D02*
X95250000Y-67000000D01*
X127500000Y-60250000D02*
X127500000Y-61000000D01*
X126750000Y-59500000D02*
X127500000Y-60250000D01*
X126000000Y-59500000D02*
X126750000Y-59500000D01*
X137500000Y-60250000D02*
X137500000Y-61000000D01*
X136750000Y-59500000D02*
X137500000Y-60250000D01*
X136500000Y-59500000D02*
X136750000Y-59500000D01*
D16*
X135343750Y-54250000D02*
X132500000Y-54250000D01*
X136843750Y-55750000D02*
X135343750Y-54250000D01*
X137993750Y-55750000D02*
X136843750Y-55750000D01*
D17*
X165111400Y-55602000D02*
X165111400Y-58142000D01*
X157852000Y-55602000D02*
X165111400Y-55602000D01*
X155312000Y-53062000D02*
X157852000Y-55602000D01*
X149891400Y-53062000D02*
X155312000Y-53062000D01*
X98042890Y-74350010D02*
X105706240Y-74350010D01*
X97600000Y-73907120D02*
X98042890Y-74350010D01*
X97600000Y-72456250D02*
X97600000Y-73907120D01*
X105706240Y-74350010D02*
X115706240Y-74350010D01*
X126899990Y-74350010D02*
X127600000Y-73650000D01*
X127600000Y-73650000D02*
X127600000Y-72456250D01*
X115706240Y-74350010D02*
X126899990Y-74350010D01*
X126899990Y-74350010D02*
X135706240Y-74350010D01*
X112500000Y-56660000D02*
X112500000Y-55750000D01*
X112149990Y-57010010D02*
X112500000Y-56660000D01*
X122500000Y-56421263D02*
X122500000Y-55750000D01*
X121911253Y-57010010D02*
X122500000Y-56421263D01*
X112149990Y-57010010D02*
X121911253Y-57010010D01*
X132500000Y-56660000D02*
X132500000Y-55750000D01*
X132149990Y-57010010D02*
X132500000Y-56660000D01*
X121911253Y-57010010D02*
X132149990Y-57010010D01*
X142993750Y-56421263D02*
X142993750Y-55750000D01*
X142405003Y-57010010D02*
X142993750Y-56421263D01*
X132149990Y-57010010D02*
X142405003Y-57010010D01*
X112500000Y-63171263D02*
X112500000Y-62500000D01*
X111911253Y-63760010D02*
X112500000Y-63171263D01*
X103760010Y-63760010D02*
X111911253Y-63760010D01*
X122500000Y-63171263D02*
X122500000Y-62500000D01*
X121911253Y-63760010D02*
X122500000Y-63171263D01*
X111911253Y-63760010D02*
X121911253Y-63760010D01*
X132500000Y-63410000D02*
X132500000Y-62500000D01*
X132149990Y-63760010D02*
X132500000Y-63410000D01*
X121911253Y-63760010D02*
X132149990Y-63760010D01*
X98042890Y-82750010D02*
X105724990Y-82750010D01*
X105724990Y-82750010D02*
X115724990Y-82750010D01*
X115724990Y-82750010D02*
X125724990Y-82750010D01*
X125724990Y-82750010D02*
X135724990Y-82750010D01*
X144575010Y-80809992D02*
X142634992Y-82750010D01*
X144575010Y-76011824D02*
X144575010Y-80809992D01*
X142913196Y-74350010D02*
X144575010Y-76011824D01*
X142634992Y-82750010D02*
X135724990Y-82750010D01*
X135706240Y-74350010D02*
X142913196Y-74350010D01*
X143760010Y-57010010D02*
X144500000Y-57750000D01*
X142405003Y-57010010D02*
X143760010Y-57010010D01*
X93250000Y-81500000D02*
X94500010Y-82750010D01*
X94739990Y-63760010D02*
X93250000Y-65250000D01*
X94500010Y-82750010D02*
X98042890Y-82750010D01*
X93250000Y-65250000D02*
X93250000Y-81500000D01*
X96750000Y-82750000D02*
X96250000Y-82750000D01*
X97600000Y-81900000D02*
X96750000Y-82750000D01*
X97600000Y-80875000D02*
X97600000Y-81900000D01*
X107600000Y-81650000D02*
X107600000Y-80875000D01*
X106499990Y-82750010D02*
X107600000Y-81650000D01*
X105724990Y-82750010D02*
X106499990Y-82750010D01*
X117600000Y-81900000D02*
X117600000Y-80875000D01*
X116749990Y-82750010D02*
X117600000Y-81900000D01*
X115724990Y-82750010D02*
X116749990Y-82750010D01*
X127600000Y-81900000D02*
X127600000Y-80875000D01*
X126749990Y-82750010D02*
X127600000Y-81900000D01*
X125724990Y-82750010D02*
X126749990Y-82750010D01*
X137600000Y-81900000D02*
X137600000Y-80875000D01*
X136749990Y-82750010D02*
X137600000Y-81900000D01*
X135724990Y-82750010D02*
X136749990Y-82750010D01*
X136649990Y-74350010D02*
X137600000Y-73400000D01*
X137600000Y-73400000D02*
X137600000Y-72456250D01*
X135706240Y-74350010D02*
X136649990Y-74350010D01*
X117600000Y-73400000D02*
X117600000Y-72456250D01*
X116649990Y-74350010D02*
X117600000Y-73400000D01*
X115706240Y-74350010D02*
X116649990Y-74350010D01*
X107600000Y-73428125D02*
X107600000Y-72456250D01*
X106678115Y-74350010D02*
X107600000Y-73428125D01*
X105706240Y-74350010D02*
X106678115Y-74350010D01*
X101760010Y-63760010D02*
X94739990Y-63760010D01*
X103760010Y-63760010D02*
X101760010Y-63760010D01*
X101989990Y-63760010D02*
X101760010Y-63760010D01*
X102500000Y-63250000D02*
X101989990Y-63760010D01*
X102500000Y-62500000D02*
X102500000Y-63250000D01*
X143000000Y-63171263D02*
X143000000Y-63000000D01*
X142411253Y-63760010D02*
X143000000Y-63171263D01*
X132149990Y-63760010D02*
X142411253Y-63760010D01*
X143000000Y-63250000D02*
X144250000Y-64500000D01*
X144250000Y-64500000D02*
X145000000Y-64500000D01*
X143000000Y-62500000D02*
X143000000Y-63250000D01*
X103510010Y-57010010D02*
X112149990Y-57010010D01*
X102500000Y-56000000D02*
X103510010Y-57010010D01*
X102500000Y-55750000D02*
X102500000Y-56000000D01*
D16*
X124850000Y-54250000D02*
X122500000Y-54250000D01*
X126350000Y-55750000D02*
X124850000Y-54250000D01*
X127500000Y-55750000D02*
X126350000Y-55750000D01*
X114850000Y-54250000D02*
X112500000Y-54250000D01*
X116350000Y-55750000D02*
X114850000Y-54250000D01*
X117500000Y-55750000D02*
X116350000Y-55750000D01*
X104850000Y-54250000D02*
X102500000Y-54250000D01*
X106350000Y-55750000D02*
X104850000Y-54250000D01*
X107500000Y-55750000D02*
X106350000Y-55750000D01*
X97500000Y-55750000D02*
X96500000Y-55750000D01*
X96500000Y-55750000D02*
X96250000Y-56000000D01*
X96250000Y-56000000D02*
X96250000Y-58250000D01*
X96650000Y-58650000D02*
X143500000Y-58650000D01*
X96250000Y-58250000D02*
X96650000Y-58650000D01*
X143000000Y-61000000D02*
X144000000Y-61000000D01*
X144000000Y-61000000D02*
X145500000Y-62500000D01*
X135350000Y-61000000D02*
X132500000Y-61000000D01*
X136850000Y-62500000D02*
X135350000Y-61000000D01*
X138000000Y-62500000D02*
X136850000Y-62500000D01*
X124850000Y-61000000D02*
X122500000Y-61000000D01*
X126350000Y-62500000D02*
X124850000Y-61000000D01*
X127500000Y-62500000D02*
X126350000Y-62500000D01*
X114850000Y-61000000D02*
X112500000Y-61000000D01*
X116350000Y-62500000D02*
X114850000Y-61000000D01*
X117500000Y-62500000D02*
X116350000Y-62500000D01*
X104850000Y-61000000D02*
X102500000Y-61000000D01*
X106350000Y-62500000D02*
X104850000Y-61000000D01*
X107500000Y-62500000D02*
X106350000Y-62500000D01*
X134800000Y-72456250D02*
X132400000Y-72456250D01*
X136550000Y-70706250D02*
X134800000Y-72456250D01*
X137600000Y-70706250D02*
X136550000Y-70706250D01*
X124800000Y-72456250D02*
X122400000Y-72456250D01*
X126550000Y-70706250D02*
X124800000Y-72456250D01*
X127600000Y-70706250D02*
X126550000Y-70706250D01*
X114800000Y-72456250D02*
X112400000Y-72456250D01*
X116550000Y-70706250D02*
X114800000Y-72456250D01*
X117600000Y-70706250D02*
X116550000Y-70706250D01*
X104800000Y-72456250D02*
X102400000Y-72456250D01*
X106550000Y-70706250D02*
X104800000Y-72456250D01*
X107600000Y-70706250D02*
X106550000Y-70706250D01*
X144000000Y-76250000D02*
X144000000Y-80325000D01*
X143174990Y-75424990D02*
X144000000Y-76250000D01*
X144000000Y-80325000D02*
X143450000Y-80875000D01*
X96174990Y-75424990D02*
X143174990Y-75424990D01*
X95500000Y-71250000D02*
X95500000Y-74750000D01*
X143450000Y-80875000D02*
X142400000Y-80875000D01*
X95500000Y-74750000D02*
X96174990Y-75424990D01*
X96043750Y-70706250D02*
X95500000Y-71250000D01*
X97600000Y-70706250D02*
X96043750Y-70706250D01*
X134800000Y-80875000D02*
X132400000Y-80875000D01*
X136550000Y-79125000D02*
X134800000Y-80875000D01*
X137600000Y-79125000D02*
X136550000Y-79125000D01*
X124800000Y-80875000D02*
X122400000Y-80875000D01*
X126550000Y-79125000D02*
X124800000Y-80875000D01*
X127600000Y-79125000D02*
X126550000Y-79125000D01*
X114800000Y-80875000D02*
X112400000Y-80875000D01*
X116550000Y-79125000D02*
X114800000Y-80875000D01*
X117600000Y-79125000D02*
X116550000Y-79125000D01*
X104800000Y-80875000D02*
X102400000Y-80875000D01*
X106550000Y-79125000D02*
X104800000Y-80875000D01*
X107600000Y-79125000D02*
X106550000Y-79125000D01*
X166614990Y-48000000D02*
X166114990Y-47500000D01*
X165750000Y-51750000D02*
X166614990Y-50885010D01*
X166614990Y-50885010D02*
X166614990Y-48000000D01*
X148250000Y-52250000D02*
X148750000Y-51750000D01*
X148750000Y-51750000D02*
X165750000Y-51750000D01*
X148250000Y-55000000D02*
X148250000Y-52250000D01*
X148852000Y-55602000D02*
X148250000Y-55000000D01*
X166114990Y-47500000D02*
X145750000Y-47500000D01*
X149891400Y-55602000D02*
X148852000Y-55602000D01*
X144542990Y-72456250D02*
X145999240Y-71000000D01*
X142400000Y-72456250D02*
X144542990Y-72456250D01*
X145456250Y-72456250D02*
X142400000Y-72456250D01*
X147000000Y-74000000D02*
X145456250Y-72456250D01*
X147000000Y-82000000D02*
X147000000Y-74000000D01*
X145000000Y-84000000D02*
X147000000Y-82000000D01*
X93250000Y-84000000D02*
X145000000Y-84000000D01*
X92250000Y-83000000D02*
X93250000Y-84000000D01*
X92250000Y-63500000D02*
X92250000Y-83000000D01*
X93250000Y-62500000D02*
X92250000Y-63500000D01*
X97500000Y-62500000D02*
X93250000Y-62500000D01*
M02*
