M48
; DRILL file {KiCad 5.1.8} date Fri Dec 11 01:20:59 2020
; FORMAT={-:-/ absolute / metric / decimal}
; #@! TF.CreationDate,2020-12-11T01:20:59+09:00
; #@! TF.GenerationSoftware,Kicad,Pcbnew,5.1.8
; #@! TF.FileFunction,Plated,1,2,PTH
FMAT,2
METRIC
T1C0.400
T2C0.813
T3C1.300
%
G90
G05
T1
X111.25Y-105.5
X112.5Y-111.5
X113.0Y-109.5
X113.5Y-116.25
X114.5Y-115.35
X143.5Y-58.65
X144.5Y-57.75
X145.0Y-64.5
X145.5Y-62.5
X146.75Y-68.5
T2
X92.889Y-95.538
X92.889Y-98.078
X92.889Y-100.618
X92.889Y-103.158
X92.889Y-105.698
X92.889Y-108.238
X92.889Y-110.778
X92.889Y-113.318
X92.889Y-115.858
X92.889Y-118.398
X92.889Y-120.938
X92.889Y-123.478
X108.109Y-95.538
X108.109Y-98.078
X108.109Y-100.618
X108.109Y-103.158
X108.109Y-105.698
X108.109Y-108.238
X108.109Y-110.778
X108.109Y-113.318
X108.109Y-115.858
X108.109Y-118.398
X108.109Y-120.938
X108.109Y-123.478
X149.891Y-50.522
X149.891Y-53.062
X149.891Y-55.602
X149.891Y-58.142
X149.891Y-60.682
X149.891Y-63.222
X149.891Y-65.762
X149.891Y-68.302
X149.891Y-70.842
X149.891Y-73.382
X149.891Y-75.922
X149.891Y-78.462
X165.111Y-50.522
X165.111Y-53.062
X165.111Y-55.602
X165.111Y-58.142
X165.111Y-60.682
X165.111Y-63.222
X165.111Y-65.762
X165.111Y-68.302
X165.111Y-70.842
X165.111Y-73.382
X165.111Y-75.922
X165.111Y-78.462
T3
X112.25Y-126.5
X118.75Y-126.5
X139.25Y-47.5
X145.75Y-47.5
T0
M30
